<mxfile host="Electron" agent="Mozilla/5.0 (Windows NT 10.0; Win64; x64) AppleWebKit/537.36 (KHTML, like Gecko) draw.io/24.7.5 Chrome/126.0.6478.183 Electron/31.3.0 Safari/537.36" version="24.7.5">
  <diagram name="Page-1" id="Su_98R5-zD9q0BC0f-Cz">
    <mxGraphModel dx="875" dy="518" grid="1" gridSize="10" guides="1" tooltips="1" connect="1" arrows="1" fold="1" page="1" pageScale="1" pageWidth="4681" pageHeight="3300" math="0" shadow="0">
      <root>
        <mxCell id="0" />
        <mxCell id="1" parent="0" />
        <mxCell id="0v1o0kDrXnptHQjpsnTT-98" value="" style="rounded=1;whiteSpace=wrap;html=1;arcSize=6;dashed=1;dashPattern=1 2;" parent="1" vertex="1">
          <mxGeometry x="490" y="1000" width="1110" height="360" as="geometry" />
        </mxCell>
        <mxCell id="-AFp3wTgXLgpIX7CWwgO-98" value="" style="rounded=0;whiteSpace=wrap;html=1;dashed=1;dashPattern=1 1;fillColor=#f5f5f5;fontColor=#333333;strokeColor=#666666;fontStyle=1" parent="1" vertex="1">
          <mxGeometry x="640" y="175" width="620" height="305" as="geometry" />
        </mxCell>
        <mxCell id="ASCUuZsZNoNOx_hLhbTb-23" value="" style="rounded=0;whiteSpace=wrap;html=1;fontStyle=1;fillColor=#f8cecc;strokeColor=#b85450;" parent="1" vertex="1">
          <mxGeometry x="680" y="200" width="160" height="80" as="geometry" />
        </mxCell>
        <mxCell id="ASCUuZsZNoNOx_hLhbTb-24" value="H264 Intra&lt;div&gt;Encoder IP&lt;/div&gt;" style="rounded=0;whiteSpace=wrap;html=1;fontStyle=1;fillColor=#dae8fc;strokeColor=#6c8ebf;" parent="1" vertex="1">
          <mxGeometry x="680" y="380" width="160" height="60" as="geometry" />
        </mxCell>
        <mxCell id="ASCUuZsZNoNOx_hLhbTb-25" value="Video DMA" style="rounded=0;whiteSpace=wrap;html=1;fontStyle=1;fillColor=#dae8fc;strokeColor=#6c8ebf;" parent="1" vertex="1">
          <mxGeometry x="1080" y="380" width="120" height="60" as="geometry" />
        </mxCell>
        <mxCell id="ASCUuZsZNoNOx_hLhbTb-26" value="DDR3&lt;div&gt;Controller&lt;/div&gt;" style="rounded=0;whiteSpace=wrap;html=1;fontStyle=1" parent="1" vertex="1">
          <mxGeometry x="900" y="230" width="100" height="50" as="geometry" />
        </mxCell>
        <mxCell id="ASCUuZsZNoNOx_hLhbTb-27" value="" style="endArrow=classic;startArrow=classic;html=1;rounded=0;exitX=1;exitY=0.5;exitDx=0;exitDy=0;entryX=0;entryY=0.5;entryDx=0;entryDy=0;fontStyle=1" parent="1" source="ASCUuZsZNoNOx_hLhbTb-24" target="ASCUuZsZNoNOx_hLhbTb-25" edge="1">
          <mxGeometry width="50" height="50" relative="1" as="geometry">
            <mxPoint x="910" y="420" as="sourcePoint" />
            <mxPoint x="960" y="370" as="targetPoint" />
          </mxGeometry>
        </mxCell>
        <mxCell id="ASCUuZsZNoNOx_hLhbTb-28" value="" style="endArrow=classic;startArrow=classic;html=1;rounded=0;exitX=0.5;exitY=0;exitDx=0;exitDy=0;entryX=0.821;entryY=1.02;entryDx=0;entryDy=0;fontStyle=1;entryPerimeter=0;" parent="1" source="ASCUuZsZNoNOx_hLhbTb-25" target="-AFp3wTgXLgpIX7CWwgO-86" edge="1">
          <mxGeometry width="50" height="50" relative="1" as="geometry">
            <mxPoint x="870" y="420" as="sourcePoint" />
            <mxPoint x="959.9999999999998" y="340" as="targetPoint" />
          </mxGeometry>
        </mxCell>
        <mxCell id="ASCUuZsZNoNOx_hLhbTb-29" value="" style="endArrow=classic;startArrow=classic;html=1;rounded=0;exitX=0.711;exitY=-0.031;exitDx=0;exitDy=0;entryX=0.5;entryY=1;entryDx=0;entryDy=0;fontStyle=1;exitPerimeter=0;" parent="1" target="ASCUuZsZNoNOx_hLhbTb-26" edge="1">
          <mxGeometry width="50" height="50" relative="1" as="geometry">
            <mxPoint x="950.1800000000001" y="319.38" as="sourcePoint" />
            <mxPoint x="940" y="220" as="targetPoint" />
          </mxGeometry>
        </mxCell>
        <mxCell id="ASCUuZsZNoNOx_hLhbTb-30" value="" style="endArrow=classic;startArrow=classic;html=1;rounded=0;exitX=0.25;exitY=0;exitDx=0;exitDy=0;entryX=0.5;entryY=1;entryDx=0;entryDy=0;fontStyle=1" parent="1" target="ASCUuZsZNoNOx_hLhbTb-23" edge="1">
          <mxGeometry width="50" height="50" relative="1" as="geometry">
            <mxPoint x="760.0000000000003" y="320" as="sourcePoint" />
            <mxPoint x="779.76" y="280" as="targetPoint" />
          </mxGeometry>
        </mxCell>
        <mxCell id="ASCUuZsZNoNOx_hLhbTb-32" value="&lt;span&gt;&lt;font style=&quot;font-size: 16px;&quot;&gt;RISC-V Core&lt;/font&gt;&lt;/span&gt;" style="text;html=1;align=center;verticalAlign=middle;whiteSpace=wrap;rounded=0;fontStyle=1" parent="1" vertex="1">
          <mxGeometry x="680" y="225" width="160" height="30" as="geometry" />
        </mxCell>
        <mxCell id="ASCUuZsZNoNOx_hLhbTb-33" value="" style="endArrow=classic;startArrow=classic;html=1;rounded=0;exitX=0.5;exitY=0;exitDx=0;exitDy=0;entryX=0.25;entryY=1;entryDx=0;entryDy=0;fontStyle=1" parent="1" source="ASCUuZsZNoNOx_hLhbTb-24" edge="1">
          <mxGeometry width="50" height="50" relative="1" as="geometry">
            <mxPoint x="760" y="330" as="sourcePoint" />
            <mxPoint x="760.0000000000001" y="340" as="targetPoint" />
          </mxGeometry>
        </mxCell>
        <mxCell id="ASCUuZsZNoNOx_hLhbTb-35" value="DDR3 SDRAM" style="rounded=0;whiteSpace=wrap;html=1;fontStyle=1" parent="1" vertex="1">
          <mxGeometry x="900" y="120" width="100" height="40" as="geometry" />
        </mxCell>
        <mxCell id="ASCUuZsZNoNOx_hLhbTb-36" value="" style="endArrow=classic;startArrow=classic;html=1;rounded=0;entryX=0.5;entryY=0;entryDx=0;entryDy=0;exitX=0.5;exitY=1;exitDx=0;exitDy=0;fontStyle=1" parent="1" source="ASCUuZsZNoNOx_hLhbTb-35" target="ASCUuZsZNoNOx_hLhbTb-26" edge="1">
          <mxGeometry width="50" height="50" relative="1" as="geometry">
            <mxPoint x="910" y="200" as="sourcePoint" />
            <mxPoint x="960" y="150" as="targetPoint" />
          </mxGeometry>
        </mxCell>
        <mxCell id="-AFp3wTgXLgpIX7CWwgO-8" value="Intra 4x4" style="rounded=0;whiteSpace=wrap;html=1;fontStyle=1" parent="1" vertex="1">
          <mxGeometry x="2050" y="1980" width="100" height="40" as="geometry" />
        </mxCell>
        <mxCell id="-AFp3wTgXLgpIX7CWwgO-18" value="Intra 16x16" style="rounded=0;whiteSpace=wrap;html=1;fontStyle=1" parent="1" vertex="1">
          <mxGeometry x="2050" y="2040" width="100" height="40" as="geometry" />
        </mxCell>
        <mxCell id="-AFp3wTgXLgpIX7CWwgO-24" value="Chroma 8x8" style="rounded=0;whiteSpace=wrap;html=1;fontStyle=1" parent="1" vertex="1">
          <mxGeometry x="2050" y="2130" width="100" height="40" as="geometry" />
        </mxCell>
        <mxCell id="-AFp3wTgXLgpIX7CWwgO-28" value="pre" style="endArrow=classic;html=1;rounded=0;exitX=0.5;exitY=0;exitDx=0;exitDy=0;entryX=0.5;entryY=1;entryDx=0;entryDy=0;fontStyle=1" parent="1" target="-AFp3wTgXLgpIX7CWwgO-29" edge="1">
          <mxGeometry x="-0.4074" y="10" width="50" height="50" relative="1" as="geometry">
            <mxPoint x="2280" y="2105" as="sourcePoint" />
            <mxPoint x="2350" y="2105" as="targetPoint" />
            <Array as="points">
              <mxPoint x="2365" y="2105" />
            </Array>
            <mxPoint as="offset" />
          </mxGeometry>
        </mxCell>
        <mxCell id="-AFp3wTgXLgpIX7CWwgO-29" value="-" style="ellipse;whiteSpace=wrap;html=1;aspect=fixed;fontStyle=1" parent="1" vertex="1">
          <mxGeometry x="2350" y="2010" width="30" height="30" as="geometry" />
        </mxCell>
        <mxCell id="-AFp3wTgXLgpIX7CWwgO-31" value="res" style="endArrow=classic;html=1;rounded=0;exitX=1;exitY=0.5;exitDx=0;exitDy=0;fontStyle=1" parent="1" source="-AFp3wTgXLgpIX7CWwgO-29" edge="1">
          <mxGeometry y="10" width="50" height="50" relative="1" as="geometry">
            <mxPoint x="2380" y="2005" as="sourcePoint" />
            <mxPoint x="2400" y="2030" as="targetPoint" />
            <mxPoint as="offset" />
          </mxGeometry>
        </mxCell>
        <mxCell id="-AFp3wTgXLgpIX7CWwgO-32" value="" style="rounded=0;whiteSpace=wrap;html=1;fontStyle=1;dashed=1;dashPattern=1 1;" parent="1" vertex="1">
          <mxGeometry x="2420" y="1962.5" width="100" height="107.5" as="geometry" />
        </mxCell>
        <mxCell id="-AFp3wTgXLgpIX7CWwgO-34" value="Quantization" style="rounded=0;whiteSpace=wrap;html=1;fontStyle=1" parent="1" vertex="1">
          <mxGeometry x="2540" y="2005" width="100" height="40" as="geometry" />
        </mxCell>
        <mxCell id="-AFp3wTgXLgpIX7CWwgO-35" value="" style="endArrow=classic;html=1;rounded=0;exitX=1;exitY=0.5;exitDx=0;exitDy=0;entryX=0;entryY=0.5;entryDx=0;entryDy=0;fontStyle=1" parent="1" source="-AFp3wTgXLgpIX7CWwgO-32" target="-AFp3wTgXLgpIX7CWwgO-34" edge="1">
          <mxGeometry width="50" height="50" relative="1" as="geometry">
            <mxPoint x="2530" y="2035" as="sourcePoint" />
            <mxPoint x="2580" y="1985" as="targetPoint" />
          </mxGeometry>
        </mxCell>
        <mxCell id="IIEPfTyxhUGCAGnqg8MC-68" style="edgeStyle=orthogonalEdgeStyle;rounded=0;orthogonalLoop=1;jettySize=auto;html=1;entryX=-0.007;entryY=0.394;entryDx=0;entryDy=0;entryPerimeter=0;" parent="1" source="-AFp3wTgXLgpIX7CWwgO-36" target="-AFp3wTgXLgpIX7CWwgO-37" edge="1">
          <mxGeometry relative="1" as="geometry" />
        </mxCell>
        <mxCell id="-AFp3wTgXLgpIX7CWwgO-36" value="CALVC&lt;div&gt;Entrophy&lt;/div&gt;&lt;div&gt;Coding&lt;/div&gt;" style="rounded=0;whiteSpace=wrap;html=1;fontStyle=1" parent="1" vertex="1">
          <mxGeometry x="2680" y="2000" width="100" height="50" as="geometry" />
        </mxCell>
        <mxCell id="-AFp3wTgXLgpIX7CWwgO-37" value="Stream&lt;div&gt;Generator&lt;/div&gt;" style="rounded=0;whiteSpace=wrap;html=1;fontStyle=1" parent="1" vertex="1">
          <mxGeometry x="2830" y="2000" width="100" height="165" as="geometry" />
        </mxCell>
        <mxCell id="-AFp3wTgXLgpIX7CWwgO-38" value="" style="endArrow=classic;html=1;rounded=0;entryX=0;entryY=0.5;entryDx=0;entryDy=0;exitX=1;exitY=0.5;exitDx=0;exitDy=0;fontStyle=1" parent="1" source="-AFp3wTgXLgpIX7CWwgO-34" target="-AFp3wTgXLgpIX7CWwgO-36" edge="1">
          <mxGeometry width="50" height="50" relative="1" as="geometry">
            <mxPoint x="2630" y="2055" as="sourcePoint" />
            <mxPoint x="2680" y="2005" as="targetPoint" />
          </mxGeometry>
        </mxCell>
        <mxCell id="-AFp3wTgXLgpIX7CWwgO-40" value="&lt;div&gt;Inverse&lt;/div&gt;Quantization" style="rounded=0;whiteSpace=wrap;html=1;fontStyle=1" parent="1" vertex="1">
          <mxGeometry x="2540" y="2225" width="100" height="40" as="geometry" />
        </mxCell>
        <mxCell id="-AFp3wTgXLgpIX7CWwgO-41" value="+" style="ellipse;whiteSpace=wrap;html=1;aspect=fixed;fontStyle=1" parent="1" vertex="1">
          <mxGeometry x="2351" y="2230" width="30" height="30" as="geometry" />
        </mxCell>
        <mxCell id="-AFp3wTgXLgpIX7CWwgO-42" value="" style="endArrow=classic;html=1;rounded=0;entryX=0.5;entryY=0;entryDx=0;entryDy=0;fontStyle=1" parent="1" target="-AFp3wTgXLgpIX7CWwgO-41" edge="1">
          <mxGeometry width="50" height="50" relative="1" as="geometry">
            <mxPoint x="2360" y="2105" as="sourcePoint" />
            <mxPoint x="2410" y="2105" as="targetPoint" />
            <Array as="points">
              <mxPoint x="2365" y="2105" />
            </Array>
          </mxGeometry>
        </mxCell>
        <mxCell id="-AFp3wTgXLgpIX7CWwgO-43" value="" style="endArrow=classic;html=1;rounded=0;entryX=0.5;entryY=0;entryDx=0;entryDy=0;exitX=0.5;exitY=1;exitDx=0;exitDy=0;fontStyle=1" parent="1" source="-AFp3wTgXLgpIX7CWwgO-34" target="-AFp3wTgXLgpIX7CWwgO-40" edge="1">
          <mxGeometry width="50" height="50" relative="1" as="geometry">
            <mxPoint x="2650" y="2025" as="sourcePoint" />
            <mxPoint x="2580" y="2065" as="targetPoint" />
            <Array as="points">
              <mxPoint x="2590" y="2070" />
              <mxPoint x="2590" y="2130" />
            </Array>
          </mxGeometry>
        </mxCell>
        <mxCell id="-AFp3wTgXLgpIX7CWwgO-44" value="&lt;div&gt;Inverse&lt;/div&gt;Transform" style="rounded=0;whiteSpace=wrap;html=1;fontStyle=1" parent="1" vertex="1">
          <mxGeometry x="2431" y="2225" width="80" height="40" as="geometry" />
        </mxCell>
        <mxCell id="-AFp3wTgXLgpIX7CWwgO-45" value="" style="endArrow=classic;html=1;rounded=0;entryX=1;entryY=0.5;entryDx=0;entryDy=0;exitX=0;exitY=0.5;exitDx=0;exitDy=0;fontStyle=1" parent="1" source="-AFp3wTgXLgpIX7CWwgO-40" target="-AFp3wTgXLgpIX7CWwgO-44" edge="1">
          <mxGeometry width="50" height="50" relative="1" as="geometry">
            <mxPoint x="2481" y="2180" as="sourcePoint" />
            <mxPoint x="2531" y="2130" as="targetPoint" />
          </mxGeometry>
        </mxCell>
        <mxCell id="-AFp3wTgXLgpIX7CWwgO-46" value="" style="endArrow=classic;html=1;rounded=0;entryX=1;entryY=0.5;entryDx=0;entryDy=0;exitX=0;exitY=0.5;exitDx=0;exitDy=0;fontStyle=1" parent="1" source="-AFp3wTgXLgpIX7CWwgO-44" target="-AFp3wTgXLgpIX7CWwgO-41" edge="1">
          <mxGeometry width="50" height="50" relative="1" as="geometry">
            <mxPoint x="2421" y="2180" as="sourcePoint" />
            <mxPoint x="2471" y="2130" as="targetPoint" />
          </mxGeometry>
        </mxCell>
        <mxCell id="-AFp3wTgXLgpIX7CWwgO-49" value="&lt;font style=&quot;font-size: 10px;&quot;&gt;reconstructed&lt;/font&gt;" style="endArrow=classic;html=1;rounded=0;exitX=0;exitY=0.5;exitDx=0;exitDy=0;entryX=0;entryY=0.5;entryDx=0;entryDy=0;fontStyle=1;strokeColor=default;labelBackgroundColor=none;" parent="1" source="-AFp3wTgXLgpIX7CWwgO-41" target="-AFp3wTgXLgpIX7CWwgO-61" edge="1">
          <mxGeometry x="0.0031" y="-5" width="50" height="50" relative="1" as="geometry">
            <mxPoint x="2271" y="2240" as="sourcePoint" />
            <mxPoint x="2170" y="2245" as="targetPoint" />
            <mxPoint as="offset" />
            <Array as="points">
              <mxPoint x="1820" y="2250" />
              <mxPoint x="1820" y="2080" />
            </Array>
          </mxGeometry>
        </mxCell>
        <mxCell id="-AFp3wTgXLgpIX7CWwgO-50" value="Prediction&lt;div&gt;Module&lt;/div&gt;" style="rounded=0;whiteSpace=wrap;html=1;fontStyle=1" parent="1" vertex="1">
          <mxGeometry x="1940" y="1970" width="70" height="120" as="geometry" />
        </mxCell>
        <mxCell id="-AFp3wTgXLgpIX7CWwgO-61" value="Reference&lt;div&gt;Pixels&lt;/div&gt;" style="rounded=0;whiteSpace=wrap;html=1;fontStyle=1" parent="1" vertex="1">
          <mxGeometry x="1850" y="1970" width="70" height="220" as="geometry" />
        </mxCell>
        <mxCell id="-AFp3wTgXLgpIX7CWwgO-62" value="" style="endArrow=classic;html=1;rounded=0;exitX=1;exitY=0.75;exitDx=0;exitDy=0;entryX=0;entryY=0.5;entryDx=0;entryDy=0;fontStyle=1" parent="1" source="-AFp3wTgXLgpIX7CWwgO-50" target="-AFp3wTgXLgpIX7CWwgO-18" edge="1">
          <mxGeometry width="50" height="50" relative="1" as="geometry">
            <mxPoint x="2020" y="2045" as="sourcePoint" />
            <mxPoint x="2080" y="2045" as="targetPoint" />
          </mxGeometry>
        </mxCell>
        <mxCell id="-AFp3wTgXLgpIX7CWwgO-64" value="" style="endArrow=classic;html=1;rounded=0;exitX=1;exitY=0.25;exitDx=0;exitDy=0;fontStyle=1;entryX=0;entryY=0.5;entryDx=0;entryDy=0;" parent="1" source="-AFp3wTgXLgpIX7CWwgO-50" target="-AFp3wTgXLgpIX7CWwgO-8" edge="1">
          <mxGeometry width="50" height="50" relative="1" as="geometry">
            <mxPoint x="2020" y="1985" as="sourcePoint" />
            <mxPoint x="2060" y="1985" as="targetPoint" />
          </mxGeometry>
        </mxCell>
        <mxCell id="-AFp3wTgXLgpIX7CWwgO-70" value="" style="endArrow=classic;html=1;rounded=0;exitX=1;exitY=0.5;exitDx=0;exitDy=0;fontStyle=1" parent="1" source="-AFp3wTgXLgpIX7CWwgO-37" edge="1">
          <mxGeometry x="-0.3333" y="-20" width="50" height="50" relative="1" as="geometry">
            <mxPoint x="2540" y="1815" as="sourcePoint" />
            <mxPoint x="2990" y="2025" as="targetPoint" />
            <mxPoint as="offset" />
          </mxGeometry>
        </mxCell>
        <mxCell id="-AFp3wTgXLgpIX7CWwgO-72" value="" style="endArrow=classic;startArrow=classic;html=1;rounded=0;exitX=0.5;exitY=0;exitDx=0;exitDy=0;fontStyle=1;" parent="1" edge="1">
          <mxGeometry x="1" y="10" width="50" height="50" relative="1" as="geometry">
            <mxPoint x="2190" y="1670" as="sourcePoint" />
            <mxPoint x="2190" y="1610" as="targetPoint" />
            <mxPoint x="10" y="-10" as="offset" />
          </mxGeometry>
        </mxCell>
        <mxCell id="-AFp3wTgXLgpIX7CWwgO-76" value="SD Card" style="rounded=0;whiteSpace=wrap;html=1;fontStyle=1" parent="1" vertex="1">
          <mxGeometry x="1050" y="120" width="80" height="40" as="geometry" />
        </mxCell>
        <mxCell id="-AFp3wTgXLgpIX7CWwgO-77" value="" style="endArrow=classic;startArrow=classic;html=1;rounded=0;entryX=0.25;entryY=0;entryDx=0;entryDy=0;exitX=0.5;exitY=1;exitDx=0;exitDy=0;fontStyle=1" parent="1" source="-AFp3wTgXLgpIX7CWwgO-76" target="-AFp3wTgXLgpIX7CWwgO-87" edge="1">
          <mxGeometry width="50" height="50" relative="1" as="geometry">
            <mxPoint x="1050" y="200" as="sourcePoint" />
            <mxPoint x="1090" y="230" as="targetPoint" />
          </mxGeometry>
        </mxCell>
        <mxCell id="-AFp3wTgXLgpIX7CWwgO-79" value="" style="endArrow=classic;startArrow=classic;html=1;rounded=0;entryX=0.75;entryY=0;entryDx=0;entryDy=0;exitX=0.5;exitY=1;exitDx=0;exitDy=0;fontStyle=1" parent="1" source="-AFp3wTgXLgpIX7CWwgO-90" target="-AFp3wTgXLgpIX7CWwgO-87" edge="1">
          <mxGeometry width="50" height="50" relative="1" as="geometry">
            <mxPoint x="1250" y="160" as="sourcePoint" />
            <mxPoint x="1210" y="230" as="targetPoint" />
          </mxGeometry>
        </mxCell>
        <mxCell id="-AFp3wTgXLgpIX7CWwgO-82" value="" style="endArrow=classic;startArrow=classic;html=1;rounded=0;entryX=0.5;entryY=1;entryDx=0;entryDy=0;fontStyle=1;" parent="1" target="-AFp3wTgXLgpIX7CWwgO-87" edge="1">
          <mxGeometry width="50" height="50" relative="1" as="geometry">
            <mxPoint x="1140" y="320" as="sourcePoint" />
            <mxPoint x="1139.76" y="280" as="targetPoint" />
          </mxGeometry>
        </mxCell>
        <mxCell id="-AFp3wTgXLgpIX7CWwgO-86" value="AXI Interconnect Bus" style="rounded=0;whiteSpace=wrap;html=1;fontStyle=1" parent="1" vertex="1">
          <mxGeometry x="680" y="320" width="560" height="20" as="geometry" />
        </mxCell>
        <mxCell id="-AFp3wTgXLgpIX7CWwgO-87" value="IO Peripheral" style="rounded=0;whiteSpace=wrap;html=1;fontStyle=1" parent="1" vertex="1">
          <mxGeometry x="1040" y="230" width="200" height="50" as="geometry" />
        </mxCell>
        <mxCell id="-AFp3wTgXLgpIX7CWwgO-90" value="Ethernet" style="rounded=0;whiteSpace=wrap;html=1;fontStyle=1" parent="1" vertex="1">
          <mxGeometry x="1150" y="120" width="80" height="40" as="geometry" />
        </mxCell>
        <mxCell id="-AFp3wTgXLgpIX7CWwgO-99" value="FPGA" style="text;html=1;align=center;verticalAlign=middle;whiteSpace=wrap;rounded=0;fontStyle=1" parent="1" vertex="1">
          <mxGeometry x="640" y="178" width="50" height="10" as="geometry" />
        </mxCell>
        <mxCell id="roKgPKbmoplrxdqK_pHd-3" value="&lt;font style=&quot;font-size: 18px;&quot;&gt;Kiến trúc phần cứng IP H.264&lt;/font&gt;&lt;div&gt;&lt;font style=&quot;font-size: 18px;&quot;&gt;(chỉ triển khai Intra-prediction)&lt;/font&gt;&lt;/div&gt;" style="text;html=1;align=center;verticalAlign=middle;whiteSpace=wrap;rounded=0;fontStyle=1" parent="1" vertex="1">
          <mxGeometry x="2040" y="1570" width="300" height="30" as="geometry" />
        </mxCell>
        <mxCell id="oyBfPzl-It31Lg0JGzu8-1" value="" style="rounded=0;whiteSpace=wrap;html=1;dashed=1;dashPattern=1 1;fillColor=#f5f5f5;fontColor=#333333;strokeColor=#666666;fontStyle=1" parent="1" vertex="1">
          <mxGeometry x="1760" y="185" width="720" height="305" as="geometry" />
        </mxCell>
        <mxCell id="oyBfPzl-It31Lg0JGzu8-2" value="" style="rounded=0;whiteSpace=wrap;html=1;dashed=1;dashPattern=1 2;fontStyle=1" parent="1" vertex="1">
          <mxGeometry x="1780" y="370" width="680" height="100" as="geometry" />
        </mxCell>
        <mxCell id="oyBfPzl-It31Lg0JGzu8-3" value="" style="rounded=0;whiteSpace=wrap;html=1;fontStyle=1;fillColor=#f8cecc;strokeColor=#b85450;" parent="1" vertex="1">
          <mxGeometry x="1800" y="210" width="160" height="80" as="geometry" />
        </mxCell>
        <mxCell id="oyBfPzl-It31Lg0JGzu8-4" value="H264 Intra&lt;div&gt;Encoder IP&lt;/div&gt;" style="rounded=0;whiteSpace=wrap;html=1;fontStyle=1;fillColor=#dae8fc;strokeColor=#6c8ebf;" parent="1" vertex="1">
          <mxGeometry x="1800" y="390" width="160" height="60" as="geometry" />
        </mxCell>
        <mxCell id="oyBfPzl-It31Lg0JGzu8-5" value="Video DMA" style="rounded=0;whiteSpace=wrap;html=1;fontStyle=1;fillColor=#dae8fc;strokeColor=#6c8ebf;" parent="1" vertex="1">
          <mxGeometry x="2020" y="390" width="120" height="60" as="geometry" />
        </mxCell>
        <mxCell id="oyBfPzl-It31Lg0JGzu8-6" value="DDR3&lt;div&gt;Controller&lt;/div&gt;" style="rounded=0;whiteSpace=wrap;html=1;fontStyle=1" parent="1" vertex="1">
          <mxGeometry x="2020" y="240" width="100" height="50" as="geometry" />
        </mxCell>
        <mxCell id="oyBfPzl-It31Lg0JGzu8-7" value="" style="endArrow=classic;startArrow=classic;html=1;rounded=0;exitX=1;exitY=0.5;exitDx=0;exitDy=0;entryX=0;entryY=0.5;entryDx=0;entryDy=0;fontStyle=1" parent="1" source="oyBfPzl-It31Lg0JGzu8-4" target="oyBfPzl-It31Lg0JGzu8-5" edge="1">
          <mxGeometry width="50" height="50" relative="1" as="geometry">
            <mxPoint x="2030" y="430" as="sourcePoint" />
            <mxPoint x="2080" y="380" as="targetPoint" />
          </mxGeometry>
        </mxCell>
        <mxCell id="oyBfPzl-It31Lg0JGzu8-8" value="" style="endArrow=classic;startArrow=classic;html=1;rounded=0;exitX=0.5;exitY=0;exitDx=0;exitDy=0;entryX=0.75;entryY=1;entryDx=0;entryDy=0;fontStyle=1" parent="1" source="oyBfPzl-It31Lg0JGzu8-5" edge="1">
          <mxGeometry width="50" height="50" relative="1" as="geometry">
            <mxPoint x="1990" y="430" as="sourcePoint" />
            <mxPoint x="2080" y="350" as="targetPoint" />
          </mxGeometry>
        </mxCell>
        <mxCell id="oyBfPzl-It31Lg0JGzu8-9" value="" style="endArrow=classic;startArrow=classic;html=1;rounded=0;exitX=0.711;exitY=-0.031;exitDx=0;exitDy=0;entryX=0.5;entryY=1;entryDx=0;entryDy=0;fontStyle=1;exitPerimeter=0;" parent="1" target="oyBfPzl-It31Lg0JGzu8-6" edge="1">
          <mxGeometry width="50" height="50" relative="1" as="geometry">
            <mxPoint x="2070.1800000000003" y="329.38" as="sourcePoint" />
            <mxPoint x="2060" y="230" as="targetPoint" />
          </mxGeometry>
        </mxCell>
        <mxCell id="oyBfPzl-It31Lg0JGzu8-10" value="" style="endArrow=classic;startArrow=classic;html=1;rounded=0;exitX=0.25;exitY=0;exitDx=0;exitDy=0;entryX=0.5;entryY=1;entryDx=0;entryDy=0;fontStyle=1" parent="1" target="oyBfPzl-It31Lg0JGzu8-3" edge="1">
          <mxGeometry width="50" height="50" relative="1" as="geometry">
            <mxPoint x="1880.0000000000005" y="330" as="sourcePoint" />
            <mxPoint x="1899.76" y="290" as="targetPoint" />
          </mxGeometry>
        </mxCell>
        <mxCell id="oyBfPzl-It31Lg0JGzu8-11" value="&lt;span style=&quot;&quot;&gt;AXI Master&lt;/span&gt;" style="text;html=1;align=center;verticalAlign=middle;whiteSpace=wrap;rounded=0;fontStyle=1" parent="1" vertex="1">
          <mxGeometry x="1845" y="270" width="70" height="20" as="geometry" />
        </mxCell>
        <mxCell id="oyBfPzl-It31Lg0JGzu8-12" value="&lt;span&gt;&lt;font style=&quot;font-size: 16px;&quot;&gt;RISC-V Core&lt;/font&gt;&lt;/span&gt;" style="text;html=1;align=center;verticalAlign=middle;whiteSpace=wrap;rounded=0;fontStyle=1" parent="1" vertex="1">
          <mxGeometry x="1800" y="210" width="160" height="30" as="geometry" />
        </mxCell>
        <mxCell id="oyBfPzl-It31Lg0JGzu8-13" value="" style="endArrow=classic;startArrow=classic;html=1;rounded=0;exitX=0.5;exitY=0;exitDx=0;exitDy=0;entryX=0.25;entryY=1;entryDx=0;entryDy=0;fontStyle=1" parent="1" source="oyBfPzl-It31Lg0JGzu8-4" edge="1">
          <mxGeometry width="50" height="50" relative="1" as="geometry">
            <mxPoint x="1880" y="340" as="sourcePoint" />
            <mxPoint x="1880" y="350" as="targetPoint" />
          </mxGeometry>
        </mxCell>
        <mxCell id="oyBfPzl-It31Lg0JGzu8-14" value="DDR3 SDRAM" style="rounded=0;whiteSpace=wrap;html=1;fontStyle=1" parent="1" vertex="1">
          <mxGeometry x="2020" y="130" width="100" height="40" as="geometry" />
        </mxCell>
        <mxCell id="oyBfPzl-It31Lg0JGzu8-15" value="" style="endArrow=classic;startArrow=classic;html=1;rounded=0;entryX=0.5;entryY=0;entryDx=0;entryDy=0;exitX=0.5;exitY=1;exitDx=0;exitDy=0;fontStyle=1" parent="1" source="oyBfPzl-It31Lg0JGzu8-14" target="oyBfPzl-It31Lg0JGzu8-6" edge="1">
          <mxGeometry width="50" height="50" relative="1" as="geometry">
            <mxPoint x="2030" y="210" as="sourcePoint" />
            <mxPoint x="2080" y="160" as="targetPoint" />
          </mxGeometry>
        </mxCell>
        <mxCell id="oyBfPzl-It31Lg0JGzu8-16" value="SD Card" style="rounded=0;whiteSpace=wrap;html=1;fontStyle=1" parent="1" vertex="1">
          <mxGeometry x="2190" y="130" width="80" height="40" as="geometry" />
        </mxCell>
        <mxCell id="oyBfPzl-It31Lg0JGzu8-17" value="" style="endArrow=classic;startArrow=classic;html=1;rounded=0;entryX=0.25;entryY=0;entryDx=0;entryDy=0;exitX=0.5;exitY=1;exitDx=0;exitDy=0;fontStyle=1" parent="1" source="oyBfPzl-It31Lg0JGzu8-16" target="oyBfPzl-It31Lg0JGzu8-27" edge="1">
          <mxGeometry width="50" height="50" relative="1" as="geometry">
            <mxPoint x="2170" y="210" as="sourcePoint" />
            <mxPoint x="2210" y="240" as="targetPoint" />
          </mxGeometry>
        </mxCell>
        <mxCell id="oyBfPzl-It31Lg0JGzu8-18" value="USB Hub" style="rounded=0;whiteSpace=wrap;html=1;fontStyle=1" parent="1" vertex="1">
          <mxGeometry x="2330" y="130" width="80" height="40" as="geometry" />
        </mxCell>
        <mxCell id="oyBfPzl-It31Lg0JGzu8-19" value="" style="endArrow=classic;startArrow=classic;html=1;rounded=0;entryX=0.75;entryY=0;entryDx=0;entryDy=0;exitX=0.5;exitY=1;exitDx=0;exitDy=0;fontStyle=1" parent="1" source="oyBfPzl-It31Lg0JGzu8-18" target="oyBfPzl-It31Lg0JGzu8-27" edge="1">
          <mxGeometry width="50" height="50" relative="1" as="geometry">
            <mxPoint x="2270" y="210" as="sourcePoint" />
            <mxPoint x="2330" y="240" as="targetPoint" />
          </mxGeometry>
        </mxCell>
        <mxCell id="oyBfPzl-It31Lg0JGzu8-20" value="" style="endArrow=classic;html=1;rounded=0;entryX=1;entryY=0.5;entryDx=0;entryDy=0;fontStyle=1;exitX=0;exitY=0.5;exitDx=0;exitDy=0;" parent="1" source="oyBfPzl-It31Lg0JGzu8-29" target="oyBfPzl-It31Lg0JGzu8-18" edge="1">
          <mxGeometry width="50" height="50" relative="1" as="geometry">
            <mxPoint x="2470" y="150" as="sourcePoint" />
            <mxPoint x="2270" y="200" as="targetPoint" />
          </mxGeometry>
        </mxCell>
        <mxCell id="oyBfPzl-It31Lg0JGzu8-21" value="" style="endArrow=classic;startArrow=classic;html=1;rounded=0;exitX=0.711;exitY=-0.031;exitDx=0;exitDy=0;entryX=0.5;entryY=1;entryDx=0;entryDy=0;fontStyle=1;exitPerimeter=0;" parent="1" edge="1">
          <mxGeometry width="50" height="50" relative="1" as="geometry">
            <mxPoint x="2259.94" y="329.38" as="sourcePoint" />
            <mxPoint x="2259.76" y="290" as="targetPoint" />
          </mxGeometry>
        </mxCell>
        <mxCell id="oyBfPzl-It31Lg0JGzu8-22" value="Video DMA" style="rounded=0;whiteSpace=wrap;html=1;fontStyle=1;fillColor=#dae8fc;strokeColor=#6c8ebf;" parent="1" vertex="1">
          <mxGeometry x="2160" y="390" width="120" height="60" as="geometry" />
        </mxCell>
        <mxCell id="oyBfPzl-It31Lg0JGzu8-23" value="" style="endArrow=classic;startArrow=classic;html=1;rounded=0;exitX=0.5;exitY=0;exitDx=0;exitDy=0;entryX=0.75;entryY=1;entryDx=0;entryDy=0;fontStyle=1" parent="1" source="oyBfPzl-It31Lg0JGzu8-22" edge="1">
          <mxGeometry width="50" height="50" relative="1" as="geometry">
            <mxPoint x="2170" y="430" as="sourcePoint" />
            <mxPoint x="2220" y="350" as="targetPoint" />
          </mxGeometry>
        </mxCell>
        <mxCell id="oyBfPzl-It31Lg0JGzu8-24" style="edgeStyle=orthogonalEdgeStyle;rounded=0;orthogonalLoop=1;jettySize=auto;html=1;entryX=0;entryY=0.5;entryDx=0;entryDy=0;fontStyle=1" parent="1" source="oyBfPzl-It31Lg0JGzu8-25" target="oyBfPzl-It31Lg0JGzu8-30" edge="1">
          <mxGeometry relative="1" as="geometry" />
        </mxCell>
        <mxCell id="oyBfPzl-It31Lg0JGzu8-25" value="HDMI&lt;div&gt;Controller&lt;/div&gt;" style="rounded=0;whiteSpace=wrap;html=1;fontStyle=1;fillColor=#dae8fc;strokeColor=#6c8ebf;" parent="1" vertex="1">
          <mxGeometry x="2320" y="390" width="120" height="60" as="geometry" />
        </mxCell>
        <mxCell id="oyBfPzl-It31Lg0JGzu8-26" value="AXI Interconnect Bus" style="rounded=0;whiteSpace=wrap;html=1;fontStyle=1" parent="1" vertex="1">
          <mxGeometry x="1800" y="330" width="640" height="20" as="geometry" />
        </mxCell>
        <mxCell id="oyBfPzl-It31Lg0JGzu8-27" value="IO Peripheral" style="rounded=0;whiteSpace=wrap;html=1;fontStyle=1" parent="1" vertex="1">
          <mxGeometry x="2160" y="240" width="280" height="50" as="geometry" />
        </mxCell>
        <mxCell id="oyBfPzl-It31Lg0JGzu8-28" value="Ethernet" style="rounded=0;whiteSpace=wrap;html=1;fontStyle=1" parent="1" vertex="1">
          <mxGeometry x="2500" y="245" width="80" height="40" as="geometry" />
        </mxCell>
        <mxCell id="oyBfPzl-It31Lg0JGzu8-29" value="USB Camera" style="rounded=0;whiteSpace=wrap;html=1;fontStyle=1" parent="1" vertex="1">
          <mxGeometry x="2500" y="130" width="80" height="40" as="geometry" />
        </mxCell>
        <mxCell id="oyBfPzl-It31Lg0JGzu8-30" value="HDMI" style="rounded=0;whiteSpace=wrap;html=1;fontStyle=1" parent="1" vertex="1">
          <mxGeometry x="2500" y="400" width="80" height="40" as="geometry" />
        </mxCell>
        <mxCell id="oyBfPzl-It31Lg0JGzu8-31" value="" style="endArrow=classic;startArrow=classic;html=1;rounded=0;entryX=0;entryY=0.5;entryDx=0;entryDy=0;exitX=1;exitY=0.5;exitDx=0;exitDy=0;fontStyle=1" parent="1" source="oyBfPzl-It31Lg0JGzu8-27" target="oyBfPzl-It31Lg0JGzu8-28" edge="1">
          <mxGeometry width="50" height="50" relative="1" as="geometry">
            <mxPoint x="2320" y="300" as="sourcePoint" />
            <mxPoint x="2370" y="250" as="targetPoint" />
          </mxGeometry>
        </mxCell>
        <mxCell id="oyBfPzl-It31Lg0JGzu8-32" value="FPGA" style="text;html=1;align=center;verticalAlign=middle;whiteSpace=wrap;rounded=0;fontStyle=1" parent="1" vertex="1">
          <mxGeometry x="1780" y="373" width="40" height="10" as="geometry" />
        </mxCell>
        <mxCell id="oyBfPzl-It31Lg0JGzu8-33" value="Virtex 7" style="text;html=1;align=center;verticalAlign=middle;whiteSpace=wrap;rounded=0;fontStyle=1" parent="1" vertex="1">
          <mxGeometry x="1760" y="188" width="50" height="10" as="geometry" />
        </mxCell>
        <mxCell id="oyBfPzl-It31Lg0JGzu8-34" value="" style="endArrow=classic;startArrow=classic;html=1;rounded=0;exitX=1;exitY=0.5;exitDx=0;exitDy=0;entryX=0;entryY=0.5;entryDx=0;entryDy=0;fontStyle=1" parent="1" source="oyBfPzl-It31Lg0JGzu8-22" target="oyBfPzl-It31Lg0JGzu8-25" edge="1">
          <mxGeometry width="50" height="50" relative="1" as="geometry">
            <mxPoint x="2220" y="440" as="sourcePoint" />
            <mxPoint x="2270" y="390" as="targetPoint" />
          </mxGeometry>
        </mxCell>
        <mxCell id="oyBfPzl-It31Lg0JGzu8-35" value="&lt;font style=&quot;font-size: 18px;&quot;&gt;Kiến trúc phần cứng giai đoạn 2&lt;/font&gt;&lt;div style=&quot;font-size: 18px;&quot;&gt;&lt;font style=&quot;font-size: 18px;&quot;&gt;(nạp xuống board)&lt;/font&gt;&lt;/div&gt;" style="text;html=1;align=center;verticalAlign=middle;whiteSpace=wrap;rounded=0;fontStyle=1" parent="1" vertex="1">
          <mxGeometry x="2030" y="90" width="300" height="30" as="geometry" />
        </mxCell>
        <mxCell id="oyBfPzl-It31Lg0JGzu8-39" value="" style="endArrow=classic;html=1;rounded=0;fontStyle=1;entryX=0.5;entryY=0;entryDx=0;entryDy=0;" parent="1" target="-AFp3wTgXLgpIX7CWwgO-50" edge="1">
          <mxGeometry width="50" height="50" relative="1" as="geometry">
            <mxPoint x="2225" y="1950" as="sourcePoint" />
            <mxPoint x="2010" y="1920" as="targetPoint" />
            <Array as="points">
              <mxPoint x="1975" y="1950" />
            </Array>
          </mxGeometry>
        </mxCell>
        <mxCell id="IIEPfTyxhUGCAGnqg8MC-1" value="" style="rounded=0;whiteSpace=wrap;html=1;fillColor=default;" parent="1" vertex="1">
          <mxGeometry x="1760" y="720" width="940" height="640" as="geometry" />
        </mxCell>
        <mxCell id="IIEPfTyxhUGCAGnqg8MC-2" value="" style="rounded=0;whiteSpace=wrap;html=1;dashed=1;dashPattern=1 1;fontStyle=1" parent="1" vertex="1">
          <mxGeometry x="1980" y="1040" width="360" height="200" as="geometry" />
        </mxCell>
        <mxCell id="IIEPfTyxhUGCAGnqg8MC-3" value="&lt;font style=&quot;font-size: 15px;&quot;&gt;AXI INTERFACE&lt;/font&gt;" style="rounded=0;whiteSpace=wrap;html=1;fontStyle=1" parent="1" vertex="1">
          <mxGeometry x="1780" y="740" width="900" height="40" as="geometry" />
        </mxCell>
        <mxCell id="IIEPfTyxhUGCAGnqg8MC-4" value="&lt;font style=&quot;font-size: 15px;&quot;&gt;Controller&lt;/font&gt;" style="rounded=0;whiteSpace=wrap;html=1;fontStyle=1" parent="1" vertex="1">
          <mxGeometry x="2200" y="860" width="120" height="70" as="geometry" />
        </mxCell>
        <mxCell id="IIEPfTyxhUGCAGnqg8MC-5" value="" style="endArrow=classic;startArrow=classic;html=1;rounded=0;exitX=0.5;exitY=0;exitDx=0;exitDy=0;entryX=0.5;entryY=1;entryDx=0;entryDy=0;fontStyle=1" parent="1" source="IIEPfTyxhUGCAGnqg8MC-4" target="IIEPfTyxhUGCAGnqg8MC-54" edge="1">
          <mxGeometry width="50" height="50" relative="1" as="geometry">
            <mxPoint x="2350" y="900" as="sourcePoint" />
            <mxPoint x="2250" y="830" as="targetPoint" />
          </mxGeometry>
        </mxCell>
        <mxCell id="IIEPfTyxhUGCAGnqg8MC-6" value="Intra 4x4" style="rounded=0;whiteSpace=wrap;html=1;fontStyle=1" parent="1" vertex="1">
          <mxGeometry x="2110" y="1045" width="100" height="40" as="geometry" />
        </mxCell>
        <mxCell id="IIEPfTyxhUGCAGnqg8MC-7" value="Intra 16x16" style="rounded=0;whiteSpace=wrap;html=1;fontStyle=1" parent="1" vertex="1">
          <mxGeometry x="2110" y="1105" width="100" height="40" as="geometry" />
        </mxCell>
        <mxCell id="IIEPfTyxhUGCAGnqg8MC-8" value="" style="shape=trapezoid;perimeter=trapezoidPerimeter;whiteSpace=wrap;html=1;fixedSize=1;rotation=90;fontStyle=1" parent="1" vertex="1">
          <mxGeometry x="2230" y="1085" width="60" height="20" as="geometry" />
        </mxCell>
        <mxCell id="IIEPfTyxhUGCAGnqg8MC-9" value="" style="endArrow=classic;html=1;rounded=0;exitX=1;exitY=0.5;exitDx=0;exitDy=0;entryX=0.25;entryY=1;entryDx=0;entryDy=0;fontStyle=1" parent="1" source="IIEPfTyxhUGCAGnqg8MC-6" target="IIEPfTyxhUGCAGnqg8MC-8" edge="1">
          <mxGeometry width="50" height="50" relative="1" as="geometry">
            <mxPoint x="2170" y="1095" as="sourcePoint" />
            <mxPoint x="2220" y="1045" as="targetPoint" />
            <Array as="points">
              <mxPoint x="2230" y="1065" />
              <mxPoint x="2230" y="1080" />
            </Array>
          </mxGeometry>
        </mxCell>
        <mxCell id="IIEPfTyxhUGCAGnqg8MC-10" value="" style="endArrow=classic;html=1;rounded=0;exitX=1;exitY=0.5;exitDx=0;exitDy=0;entryX=0.75;entryY=1;entryDx=0;entryDy=0;fontStyle=1" parent="1" source="IIEPfTyxhUGCAGnqg8MC-7" target="IIEPfTyxhUGCAGnqg8MC-8" edge="1">
          <mxGeometry width="50" height="50" relative="1" as="geometry">
            <mxPoint x="2170" y="1095" as="sourcePoint" />
            <mxPoint x="2220" y="1045" as="targetPoint" />
            <Array as="points">
              <mxPoint x="2230" y="1125" />
              <mxPoint x="2230" y="1110" />
            </Array>
          </mxGeometry>
        </mxCell>
        <mxCell id="IIEPfTyxhUGCAGnqg8MC-11" value="Chroma 8x8" style="rounded=0;whiteSpace=wrap;html=1;fontStyle=1" parent="1" vertex="1">
          <mxGeometry x="2110" y="1195" width="100" height="40" as="geometry" />
        </mxCell>
        <mxCell id="IIEPfTyxhUGCAGnqg8MC-12" value="" style="shape=trapezoid;perimeter=trapezoidPerimeter;whiteSpace=wrap;html=1;fixedSize=1;rotation=90;fontStyle=1" parent="1" vertex="1">
          <mxGeometry x="2290" y="1165" width="60" height="20" as="geometry" />
        </mxCell>
        <mxCell id="IIEPfTyxhUGCAGnqg8MC-13" value="" style="endArrow=classic;html=1;rounded=0;exitX=0.5;exitY=0;exitDx=0;exitDy=0;entryX=0.25;entryY=1;entryDx=0;entryDy=0;fontStyle=1" parent="1" source="IIEPfTyxhUGCAGnqg8MC-8" target="IIEPfTyxhUGCAGnqg8MC-12" edge="1">
          <mxGeometry width="50" height="50" relative="1" as="geometry">
            <mxPoint x="2200" y="1155" as="sourcePoint" />
            <mxPoint x="2300" y="1155" as="targetPoint" />
            <Array as="points">
              <mxPoint x="2290" y="1095" />
              <mxPoint x="2290" y="1160" />
            </Array>
          </mxGeometry>
        </mxCell>
        <mxCell id="IIEPfTyxhUGCAGnqg8MC-14" value="pre" style="endArrow=classic;html=1;rounded=0;exitX=0.5;exitY=0;exitDx=0;exitDy=0;entryX=0.5;entryY=1;entryDx=0;entryDy=0;fontStyle=1" parent="1" source="IIEPfTyxhUGCAGnqg8MC-12" target="IIEPfTyxhUGCAGnqg8MC-15" edge="1">
          <mxGeometry x="-0.4074" y="10" width="50" height="50" relative="1" as="geometry">
            <mxPoint x="2210" y="1085" as="sourcePoint" />
            <mxPoint x="2390" y="1175" as="targetPoint" />
            <Array as="points">
              <mxPoint x="2405" y="1175" />
            </Array>
            <mxPoint as="offset" />
          </mxGeometry>
        </mxCell>
        <mxCell id="IIEPfTyxhUGCAGnqg8MC-15" value="-" style="ellipse;whiteSpace=wrap;html=1;aspect=fixed;fontStyle=1" parent="1" vertex="1">
          <mxGeometry x="2390" y="1080" width="30" height="30" as="geometry" />
        </mxCell>
        <mxCell id="IIEPfTyxhUGCAGnqg8MC-16" value="res" style="endArrow=classic;html=1;rounded=0;exitX=1;exitY=0.5;exitDx=0;exitDy=0;entryX=0;entryY=0.5;entryDx=0;entryDy=0;fontStyle=1" parent="1" source="IIEPfTyxhUGCAGnqg8MC-15" target="IIEPfTyxhUGCAGnqg8MC-17" edge="1">
          <mxGeometry y="10" width="50" height="50" relative="1" as="geometry">
            <mxPoint x="2420" y="1075" as="sourcePoint" />
            <mxPoint x="2460" y="1095" as="targetPoint" />
            <mxPoint as="offset" />
          </mxGeometry>
        </mxCell>
        <mxCell id="IIEPfTyxhUGCAGnqg8MC-17" value="Transform" style="rounded=0;whiteSpace=wrap;html=1;fontStyle=1" parent="1" vertex="1">
          <mxGeometry x="2470" y="1075" width="80" height="40" as="geometry" />
        </mxCell>
        <mxCell id="IIEPfTyxhUGCAGnqg8MC-18" value="Quantization" style="rounded=0;whiteSpace=wrap;html=1;fontStyle=1" parent="1" vertex="1">
          <mxGeometry x="2580" y="1075" width="100" height="40" as="geometry" />
        </mxCell>
        <mxCell id="IIEPfTyxhUGCAGnqg8MC-19" value="" style="endArrow=classic;html=1;rounded=0;exitX=1;exitY=0.5;exitDx=0;exitDy=0;entryX=0;entryY=0.5;entryDx=0;entryDy=0;fontStyle=1" parent="1" source="IIEPfTyxhUGCAGnqg8MC-17" target="IIEPfTyxhUGCAGnqg8MC-18" edge="1">
          <mxGeometry width="50" height="50" relative="1" as="geometry">
            <mxPoint x="2570" y="1105" as="sourcePoint" />
            <mxPoint x="2620" y="1055" as="targetPoint" />
          </mxGeometry>
        </mxCell>
        <mxCell id="IIEPfTyxhUGCAGnqg8MC-20" value="CALVC&lt;div&gt;Entrophy&lt;/div&gt;&lt;div&gt;Coding&lt;/div&gt;" style="rounded=0;whiteSpace=wrap;html=1;fontStyle=1" parent="1" vertex="1">
          <mxGeometry x="2580" y="1000" width="100" height="50" as="geometry" />
        </mxCell>
        <mxCell id="IIEPfTyxhUGCAGnqg8MC-21" value="Bitstream" style="rounded=0;whiteSpace=wrap;html=1;fontStyle=1" parent="1" vertex="1">
          <mxGeometry x="2580" y="930" width="100" height="40" as="geometry" />
        </mxCell>
        <mxCell id="IIEPfTyxhUGCAGnqg8MC-22" value="" style="endArrow=classic;html=1;rounded=0;entryX=0.5;entryY=1;entryDx=0;entryDy=0;exitX=0.5;exitY=0;exitDx=0;exitDy=0;fontStyle=1" parent="1" source="IIEPfTyxhUGCAGnqg8MC-18" target="IIEPfTyxhUGCAGnqg8MC-20" edge="1">
          <mxGeometry width="50" height="50" relative="1" as="geometry">
            <mxPoint x="2670" y="1125" as="sourcePoint" />
            <mxPoint x="2720" y="1075" as="targetPoint" />
          </mxGeometry>
        </mxCell>
        <mxCell id="IIEPfTyxhUGCAGnqg8MC-23" value="" style="endArrow=classic;html=1;rounded=0;entryX=0.5;entryY=1;entryDx=0;entryDy=0;exitX=0.5;exitY=0;exitDx=0;exitDy=0;fontStyle=1" parent="1" source="IIEPfTyxhUGCAGnqg8MC-20" target="IIEPfTyxhUGCAGnqg8MC-21" edge="1">
          <mxGeometry width="50" height="50" relative="1" as="geometry">
            <mxPoint x="2810" y="1095" as="sourcePoint" />
            <mxPoint x="2720" y="1105" as="targetPoint" />
          </mxGeometry>
        </mxCell>
        <mxCell id="IIEPfTyxhUGCAGnqg8MC-24" value="&lt;div&gt;Inverse&lt;/div&gt;Quantization" style="rounded=0;whiteSpace=wrap;html=1;fontStyle=1" parent="1" vertex="1">
          <mxGeometry x="2580" y="1295" width="100" height="40" as="geometry" />
        </mxCell>
        <mxCell id="IIEPfTyxhUGCAGnqg8MC-25" value="+" style="ellipse;whiteSpace=wrap;html=1;aspect=fixed;fontStyle=1" parent="1" vertex="1">
          <mxGeometry x="2391" y="1300" width="30" height="30" as="geometry" />
        </mxCell>
        <mxCell id="IIEPfTyxhUGCAGnqg8MC-26" value="" style="endArrow=classic;html=1;rounded=0;entryX=0.5;entryY=0;entryDx=0;entryDy=0;fontStyle=1" parent="1" target="IIEPfTyxhUGCAGnqg8MC-25" edge="1">
          <mxGeometry width="50" height="50" relative="1" as="geometry">
            <mxPoint x="2400" y="1175" as="sourcePoint" />
            <mxPoint x="2450" y="1175" as="targetPoint" />
            <Array as="points">
              <mxPoint x="2405" y="1175" />
            </Array>
          </mxGeometry>
        </mxCell>
        <mxCell id="IIEPfTyxhUGCAGnqg8MC-27" value="" style="endArrow=classic;html=1;rounded=0;entryX=0.5;entryY=0;entryDx=0;entryDy=0;exitX=0.5;exitY=1;exitDx=0;exitDy=0;fontStyle=1" parent="1" source="IIEPfTyxhUGCAGnqg8MC-18" target="IIEPfTyxhUGCAGnqg8MC-24" edge="1">
          <mxGeometry width="50" height="50" relative="1" as="geometry">
            <mxPoint x="2690" y="1095" as="sourcePoint" />
            <mxPoint x="2620" y="1135" as="targetPoint" />
            <Array as="points">
              <mxPoint x="2630" y="1140" />
              <mxPoint x="2630" y="1200" />
            </Array>
          </mxGeometry>
        </mxCell>
        <mxCell id="IIEPfTyxhUGCAGnqg8MC-28" value="&lt;div&gt;Inverse&lt;/div&gt;Transform" style="rounded=0;whiteSpace=wrap;html=1;fontStyle=1" parent="1" vertex="1">
          <mxGeometry x="2471" y="1295" width="80" height="40" as="geometry" />
        </mxCell>
        <mxCell id="IIEPfTyxhUGCAGnqg8MC-29" value="" style="endArrow=classic;html=1;rounded=0;entryX=1;entryY=0.5;entryDx=0;entryDy=0;exitX=0;exitY=0.5;exitDx=0;exitDy=0;fontStyle=1" parent="1" source="IIEPfTyxhUGCAGnqg8MC-24" target="IIEPfTyxhUGCAGnqg8MC-28" edge="1">
          <mxGeometry width="50" height="50" relative="1" as="geometry">
            <mxPoint x="2521" y="1250" as="sourcePoint" />
            <mxPoint x="2571" y="1200" as="targetPoint" />
          </mxGeometry>
        </mxCell>
        <mxCell id="IIEPfTyxhUGCAGnqg8MC-30" value="" style="endArrow=classic;html=1;rounded=0;entryX=1;entryY=0.5;entryDx=0;entryDy=0;exitX=0;exitY=0.5;exitDx=0;exitDy=0;fontStyle=1" parent="1" source="IIEPfTyxhUGCAGnqg8MC-28" target="IIEPfTyxhUGCAGnqg8MC-25" edge="1">
          <mxGeometry width="50" height="50" relative="1" as="geometry">
            <mxPoint x="2461" y="1250" as="sourcePoint" />
            <mxPoint x="2511" y="1200" as="targetPoint" />
          </mxGeometry>
        </mxCell>
        <mxCell id="IIEPfTyxhUGCAGnqg8MC-31" value="&lt;font style=&quot;font-size: 10px;&quot;&gt;reconstructed&lt;/font&gt;" style="endArrow=classic;html=1;rounded=0;exitX=0;exitY=0.5;exitDx=0;exitDy=0;entryX=1;entryY=0.5;entryDx=0;entryDy=0;fontStyle=1;strokeColor=default;labelBackgroundColor=none;" parent="1" source="IIEPfTyxhUGCAGnqg8MC-25" target="IIEPfTyxhUGCAGnqg8MC-36" edge="1">
          <mxGeometry x="0.0031" y="-5" width="50" height="50" relative="1" as="geometry">
            <mxPoint x="2311" y="1310" as="sourcePoint" />
            <mxPoint x="2210" y="1315" as="targetPoint" />
            <mxPoint as="offset" />
          </mxGeometry>
        </mxCell>
        <mxCell id="IIEPfTyxhUGCAGnqg8MC-32" value="Prediction&lt;div&gt;Module&lt;/div&gt;" style="rounded=0;whiteSpace=wrap;html=1;fontStyle=1" parent="1" vertex="1">
          <mxGeometry x="2000" y="1045" width="70" height="190" as="geometry" />
        </mxCell>
        <mxCell id="IIEPfTyxhUGCAGnqg8MC-33" value="" style="endArrow=classic;html=1;rounded=0;exitX=1;exitY=0.5;exitDx=0;exitDy=0;entryX=0.75;entryY=1;entryDx=0;entryDy=0;fontStyle=1" parent="1" source="IIEPfTyxhUGCAGnqg8MC-11" target="IIEPfTyxhUGCAGnqg8MC-12" edge="1">
          <mxGeometry width="50" height="50" relative="1" as="geometry">
            <mxPoint x="2250" y="1165" as="sourcePoint" />
            <mxPoint x="2300" y="1115" as="targetPoint" />
            <Array as="points">
              <mxPoint x="2290" y="1215" />
              <mxPoint x="2290" y="1190" />
            </Array>
          </mxGeometry>
        </mxCell>
        <mxCell id="IIEPfTyxhUGCAGnqg8MC-34" value="" style="endArrow=classic;html=1;rounded=0;exitX=1;exitY=0.5;exitDx=0;exitDy=0;entryX=0;entryY=0.5;entryDx=0;entryDy=0;fontStyle=1" parent="1" target="IIEPfTyxhUGCAGnqg8MC-11" edge="1">
          <mxGeometry width="50" height="50" relative="1" as="geometry">
            <mxPoint x="2070" y="1215" as="sourcePoint" />
            <mxPoint x="2160" y="1185" as="targetPoint" />
          </mxGeometry>
        </mxCell>
        <mxCell id="IIEPfTyxhUGCAGnqg8MC-35" style="edgeStyle=orthogonalEdgeStyle;rounded=0;orthogonalLoop=1;jettySize=auto;html=1;fontStyle=1" parent="1" source="IIEPfTyxhUGCAGnqg8MC-36" edge="1">
          <mxGeometry relative="1" as="geometry">
            <mxPoint x="2035" y="1240" as="targetPoint" />
          </mxGeometry>
        </mxCell>
        <mxCell id="IIEPfTyxhUGCAGnqg8MC-36" value="Reference&lt;div&gt;Pixels&lt;/div&gt;" style="rounded=0;whiteSpace=wrap;html=1;fontStyle=1" parent="1" vertex="1">
          <mxGeometry x="2000" y="1292.5" width="70" height="45" as="geometry" />
        </mxCell>
        <mxCell id="IIEPfTyxhUGCAGnqg8MC-37" value="" style="endArrow=classic;html=1;rounded=0;exitX=0.995;exitY=0.8;exitDx=0;exitDy=0;entryX=0;entryY=0.5;entryDx=0;entryDy=0;exitPerimeter=0;fontStyle=1" parent="1" target="IIEPfTyxhUGCAGnqg8MC-7" edge="1">
          <mxGeometry width="50" height="50" relative="1" as="geometry">
            <mxPoint x="2070" y="1125" as="sourcePoint" />
            <mxPoint x="2130" y="1125" as="targetPoint" />
          </mxGeometry>
        </mxCell>
        <mxCell id="IIEPfTyxhUGCAGnqg8MC-38" value="" style="endArrow=classic;html=1;rounded=0;exitX=0.995;exitY=0.203;exitDx=0;exitDy=0;exitPerimeter=0;fontStyle=1;entryX=0;entryY=0.5;entryDx=0;entryDy=0;" parent="1" target="IIEPfTyxhUGCAGnqg8MC-6" edge="1">
          <mxGeometry width="50" height="50" relative="1" as="geometry">
            <mxPoint x="2070" y="1065" as="sourcePoint" />
            <mxPoint x="2110" y="1065" as="targetPoint" />
          </mxGeometry>
        </mxCell>
        <mxCell id="IIEPfTyxhUGCAGnqg8MC-39" value="" style="endArrow=classic;html=1;rounded=0;exitX=0.5;exitY=0;exitDx=0;exitDy=0;entryX=0.5;entryY=1;entryDx=0;entryDy=0;fontStyle=1" parent="1" source="IIEPfTyxhUGCAGnqg8MC-21" target="IIEPfTyxhUGCAGnqg8MC-44" edge="1">
          <mxGeometry x="-0.3333" y="-20" width="50" height="50" relative="1" as="geometry">
            <mxPoint x="2580" y="885" as="sourcePoint" />
            <mxPoint x="2630" y="800" as="targetPoint" />
            <mxPoint as="offset" />
          </mxGeometry>
        </mxCell>
        <mxCell id="IIEPfTyxhUGCAGnqg8MC-40" value="" style="endArrow=classic;html=1;rounded=0;fontStyle=1;entryX=0.5;entryY=0;entryDx=0;entryDy=0;exitX=0.5;exitY=1;exitDx=0;exitDy=0;" parent="1" source="IIEPfTyxhUGCAGnqg8MC-52" target="IIEPfTyxhUGCAGnqg8MC-47" edge="1">
          <mxGeometry x="-0.0118" y="-15" width="50" height="50" relative="1" as="geometry">
            <mxPoint x="1860" y="840" as="sourcePoint" />
            <mxPoint x="1790" y="850" as="targetPoint" />
            <mxPoint as="offset" />
          </mxGeometry>
        </mxCell>
        <mxCell id="IIEPfTyxhUGCAGnqg8MC-41" value="" style="endArrow=classic;startArrow=classic;html=1;rounded=0;exitX=0.5;exitY=0;exitDx=0;exitDy=0;fontStyle=1;" parent="1" source="IIEPfTyxhUGCAGnqg8MC-3" edge="1">
          <mxGeometry x="1" y="10" width="50" height="50" relative="1" as="geometry">
            <mxPoint x="2110" y="770" as="sourcePoint" />
            <mxPoint x="2230" y="680" as="targetPoint" />
            <mxPoint x="10" y="-10" as="offset" />
          </mxGeometry>
        </mxCell>
        <mxCell id="IIEPfTyxhUGCAGnqg8MC-42" value="&lt;font style=&quot;font-size: 18px;&quot;&gt;Kiến trúc phần cứng IP H.264&lt;/font&gt;&lt;div&gt;&lt;font style=&quot;font-size: 18px;&quot;&gt;(chỉ triển khai Intra-prediction)&lt;/font&gt;&lt;/div&gt;" style="text;html=1;align=center;verticalAlign=middle;whiteSpace=wrap;rounded=0;fontStyle=1" parent="1" vertex="1">
          <mxGeometry x="2080" y="640" width="300" height="30" as="geometry" />
        </mxCell>
        <mxCell id="IIEPfTyxhUGCAGnqg8MC-43" value="&lt;span&gt;ori&lt;/span&gt;" style="endArrow=classic;html=1;rounded=0;entryX=0.5;entryY=0;entryDx=0;entryDy=0;fontStyle=1" parent="1" target="IIEPfTyxhUGCAGnqg8MC-15" edge="1">
          <mxGeometry x="0.8652" y="-15" width="50" height="50" relative="1" as="geometry">
            <mxPoint x="1960" y="1140" as="sourcePoint" />
            <mxPoint x="2320" y="970" as="targetPoint" />
            <Array as="points">
              <mxPoint x="1960" y="1000" />
              <mxPoint x="2405" y="1000" />
            </Array>
            <mxPoint as="offset" />
          </mxGeometry>
        </mxCell>
        <mxCell id="IIEPfTyxhUGCAGnqg8MC-44" value="BS Buffer" style="rounded=0;whiteSpace=wrap;html=1;fontStyle=1" parent="1" vertex="1">
          <mxGeometry x="2580" y="860" width="100" height="40" as="geometry" />
        </mxCell>
        <mxCell id="IIEPfTyxhUGCAGnqg8MC-45" value="" style="endArrow=classic;html=1;rounded=0;exitX=0.5;exitY=0;exitDx=0;exitDy=0;fontStyle=1;entryX=0.5;entryY=1;entryDx=0;entryDy=0;" parent="1" source="IIEPfTyxhUGCAGnqg8MC-44" target="IIEPfTyxhUGCAGnqg8MC-53" edge="1">
          <mxGeometry width="50" height="50" relative="1" as="geometry">
            <mxPoint x="2530" y="870" as="sourcePoint" />
            <mxPoint x="2470" y="850" as="targetPoint" />
          </mxGeometry>
        </mxCell>
        <mxCell id="IIEPfTyxhUGCAGnqg8MC-46" value="" style="group;fontStyle=1" parent="1" vertex="1" connectable="0">
          <mxGeometry x="1780" y="1040" width="160" height="200" as="geometry" />
        </mxCell>
        <mxCell id="IIEPfTyxhUGCAGnqg8MC-47" value="" style="rounded=0;whiteSpace=wrap;html=1;dashed=1;dashPattern=1 1;fontStyle=1" parent="IIEPfTyxhUGCAGnqg8MC-46" vertex="1">
          <mxGeometry width="160" height="200" as="geometry" />
        </mxCell>
        <mxCell id="IIEPfTyxhUGCAGnqg8MC-48" value="16x16&lt;div&gt;Luma (Y)&lt;/div&gt;" style="rounded=0;whiteSpace=wrap;html=1;fontStyle=1" parent="IIEPfTyxhUGCAGnqg8MC-46" vertex="1">
          <mxGeometry x="18.82" y="40" width="56.47" height="140" as="geometry" />
        </mxCell>
        <mxCell id="IIEPfTyxhUGCAGnqg8MC-49" value="8x8&lt;div&gt;Chroma (CrCb)&lt;/div&gt;" style="rounded=0;whiteSpace=wrap;html=1;fontStyle=1" parent="IIEPfTyxhUGCAGnqg8MC-46" vertex="1">
          <mxGeometry x="84.71" y="40" width="56.47" height="140" as="geometry" />
        </mxCell>
        <mxCell id="IIEPfTyxhUGCAGnqg8MC-50" value="&lt;span&gt;&lt;font style=&quot;font-size: 15px;&quot;&gt;Load MB&lt;/font&gt;&lt;/span&gt;" style="text;html=1;align=center;verticalAlign=middle;whiteSpace=wrap;rounded=0;fontStyle=1" parent="IIEPfTyxhUGCAGnqg8MC-46" vertex="1">
          <mxGeometry x="40.879999999999995" y="10" width="78.24" height="27.27" as="geometry" />
        </mxCell>
        <mxCell id="IIEPfTyxhUGCAGnqg8MC-51" value="" style="endArrow=classic;html=1;rounded=0;exitX=1;exitY=0.5;exitDx=0;exitDy=0;entryX=0;entryY=0.5;entryDx=0;entryDy=0;fontStyle=1" parent="1" source="IIEPfTyxhUGCAGnqg8MC-47" target="IIEPfTyxhUGCAGnqg8MC-2" edge="1">
          <mxGeometry width="50" height="50" relative="1" as="geometry">
            <mxPoint x="1830" y="1040" as="sourcePoint" />
            <mxPoint x="1880" y="990" as="targetPoint" />
          </mxGeometry>
        </mxCell>
        <mxCell id="IIEPfTyxhUGCAGnqg8MC-52" value="Load Data" style="rounded=0;whiteSpace=wrap;html=1;fontStyle=1" parent="1" vertex="1">
          <mxGeometry x="1780" y="780" width="160" height="30" as="geometry" />
        </mxCell>
        <mxCell id="IIEPfTyxhUGCAGnqg8MC-53" value="Store Data" style="rounded=0;whiteSpace=wrap;html=1;fontStyle=1" parent="1" vertex="1">
          <mxGeometry x="2580" y="780" width="100" height="30" as="geometry" />
        </mxCell>
        <mxCell id="IIEPfTyxhUGCAGnqg8MC-54" value="Control Signals" style="rounded=0;whiteSpace=wrap;html=1;fontStyle=1" parent="1" vertex="1">
          <mxGeometry x="1940" y="780" width="640" height="30" as="geometry" />
        </mxCell>
        <mxCell id="IIEPfTyxhUGCAGnqg8MC-67" style="edgeStyle=orthogonalEdgeStyle;rounded=0;orthogonalLoop=1;jettySize=auto;html=1;entryX=0;entryY=0.75;entryDx=0;entryDy=0;" parent="1" source="IIEPfTyxhUGCAGnqg8MC-66" target="-AFp3wTgXLgpIX7CWwgO-37" edge="1">
          <mxGeometry relative="1" as="geometry" />
        </mxCell>
        <mxCell id="IIEPfTyxhUGCAGnqg8MC-66" value="Header&lt;div&gt;Generator&lt;/div&gt;" style="rounded=0;whiteSpace=wrap;html=1;fontStyle=1" parent="1" vertex="1">
          <mxGeometry x="2680" y="2085" width="100" height="50" as="geometry" />
        </mxCell>
        <mxCell id="0v1o0kDrXnptHQjpsnTT-1" value="4x4 DCT" style="rounded=0;whiteSpace=wrap;html=1;" parent="1" vertex="1">
          <mxGeometry x="2430.5" y="1990" width="79" height="30" as="geometry" />
        </mxCell>
        <mxCell id="0v1o0kDrXnptHQjpsnTT-2" value="4x4 DC&lt;div&gt;Hadamard&lt;/div&gt;" style="rounded=0;whiteSpace=wrap;html=1;" parent="1" vertex="1">
          <mxGeometry x="2430.5" y="2030" width="79" height="30" as="geometry" />
        </mxCell>
        <mxCell id="0v1o0kDrXnptHQjpsnTT-3" value="&lt;b&gt;Transform&lt;/b&gt;" style="text;html=1;align=center;verticalAlign=middle;whiteSpace=wrap;rounded=0;" parent="1" vertex="1">
          <mxGeometry x="2420" y="1962.5" width="100" height="27.5" as="geometry" />
        </mxCell>
        <mxCell id="0v1o0kDrXnptHQjpsnTT-4" value="" style="rounded=0;whiteSpace=wrap;html=1;fontStyle=1;dashed=1;dashPattern=1 1;" parent="1" vertex="1">
          <mxGeometry x="2420" y="2091.25" width="100" height="107.5" as="geometry" />
        </mxCell>
        <mxCell id="0v1o0kDrXnptHQjpsnTT-5" value="4x4 DCT" style="rounded=0;whiteSpace=wrap;html=1;" parent="1" vertex="1">
          <mxGeometry x="2430.5" y="2118.75" width="79" height="30" as="geometry" />
        </mxCell>
        <mxCell id="0v1o0kDrXnptHQjpsnTT-6" value="2x2 DC&lt;div&gt;Hadamard&lt;/div&gt;" style="rounded=0;whiteSpace=wrap;html=1;" parent="1" vertex="1">
          <mxGeometry x="2430.5" y="2158.75" width="79" height="30" as="geometry" />
        </mxCell>
        <mxCell id="0v1o0kDrXnptHQjpsnTT-7" value="&lt;b&gt;Transform&lt;/b&gt;" style="text;html=1;align=center;verticalAlign=middle;whiteSpace=wrap;rounded=0;" parent="1" vertex="1">
          <mxGeometry x="2420" y="2091.25" width="100" height="27.5" as="geometry" />
        </mxCell>
        <mxCell id="0v1o0kDrXnptHQjpsnTT-8" value="" style="group" parent="1" vertex="1" connectable="0">
          <mxGeometry x="2186" y="1830" width="150" height="100" as="geometry" />
        </mxCell>
        <mxCell id="IIEPfTyxhUGCAGnqg8MC-56" value="" style="rounded=0;whiteSpace=wrap;html=1;dashed=1;dashPattern=1 1;fontStyle=1" parent="0v1o0kDrXnptHQjpsnTT-8" vertex="1">
          <mxGeometry width="150" height="100" as="geometry" />
        </mxCell>
        <mxCell id="IIEPfTyxhUGCAGnqg8MC-57" value="16x16&lt;div&gt;Luma (Y)&lt;/div&gt;" style="rounded=0;whiteSpace=wrap;html=1;fontStyle=1" parent="0v1o0kDrXnptHQjpsnTT-8" vertex="1">
          <mxGeometry x="8.819999999999993" y="30" width="61.18" height="60" as="geometry" />
        </mxCell>
        <mxCell id="IIEPfTyxhUGCAGnqg8MC-58" value="8x8&lt;div&gt;Chroma (CrCb)&lt;/div&gt;" style="rounded=0;whiteSpace=wrap;html=1;fontStyle=1" parent="0v1o0kDrXnptHQjpsnTT-8" vertex="1">
          <mxGeometry x="80" y="30" width="58.24" height="60" as="geometry" />
        </mxCell>
        <mxCell id="IIEPfTyxhUGCAGnqg8MC-59" value="&lt;span&gt;&lt;font style=&quot;font-size: 15px;&quot;&gt;Load MB&lt;/font&gt;&lt;/span&gt;" style="text;html=1;align=center;verticalAlign=middle;whiteSpace=wrap;rounded=0;fontStyle=1" parent="0v1o0kDrXnptHQjpsnTT-8" vertex="1">
          <mxGeometry x="30.879999999999995" width="78.24" height="27.27" as="geometry" />
        </mxCell>
        <mxCell id="0v1o0kDrXnptHQjpsnTT-9" value="-" style="ellipse;whiteSpace=wrap;html=1;aspect=fixed;fontStyle=1" parent="1" vertex="1">
          <mxGeometry x="2210" y="2015" width="30" height="30" as="geometry" />
        </mxCell>
        <mxCell id="0v1o0kDrXnptHQjpsnTT-11" style="edgeStyle=orthogonalEdgeStyle;rounded=0;orthogonalLoop=1;jettySize=auto;html=1;entryX=0;entryY=0.5;entryDx=0;entryDy=0;" parent="1" source="0v1o0kDrXnptHQjpsnTT-10" target="-AFp3wTgXLgpIX7CWwgO-24" edge="1">
          <mxGeometry relative="1" as="geometry" />
        </mxCell>
        <mxCell id="0v1o0kDrXnptHQjpsnTT-10" value="Prediction&lt;div&gt;Module&lt;/div&gt;" style="rounded=0;whiteSpace=wrap;html=1;fontStyle=1" parent="1" vertex="1">
          <mxGeometry x="1940" y="2110" width="70" height="80" as="geometry" />
        </mxCell>
        <mxCell id="0v1o0kDrXnptHQjpsnTT-12" value="" style="endArrow=none;html=1;rounded=0;exitX=1;exitY=0.5;exitDx=0;exitDy=0;entryX=1;entryY=0.5;entryDx=0;entryDy=0;" parent="1" source="-AFp3wTgXLgpIX7CWwgO-18" target="-AFp3wTgXLgpIX7CWwgO-8" edge="1">
          <mxGeometry width="50" height="50" relative="1" as="geometry">
            <mxPoint x="2180" y="2050" as="sourcePoint" />
            <mxPoint x="2230" y="2000" as="targetPoint" />
            <Array as="points">
              <mxPoint x="2180" y="2060" />
              <mxPoint x="2180" y="2000" />
            </Array>
          </mxGeometry>
        </mxCell>
        <mxCell id="0v1o0kDrXnptHQjpsnTT-13" value="" style="endArrow=classic;html=1;rounded=0;entryX=0;entryY=0.5;entryDx=0;entryDy=0;" parent="1" target="0v1o0kDrXnptHQjpsnTT-9" edge="1">
          <mxGeometry width="50" height="50" relative="1" as="geometry">
            <mxPoint x="2180" y="2030" as="sourcePoint" />
            <mxPoint x="2260" y="1960" as="targetPoint" />
          </mxGeometry>
        </mxCell>
        <mxCell id="0v1o0kDrXnptHQjpsnTT-15" value="" style="endArrow=classic;html=1;rounded=0;exitX=0.5;exitY=1;exitDx=0;exitDy=0;entryX=0.5;entryY=0;entryDx=0;entryDy=0;" parent="1" source="IIEPfTyxhUGCAGnqg8MC-57" target="0v1o0kDrXnptHQjpsnTT-9" edge="1">
          <mxGeometry width="50" height="50" relative="1" as="geometry">
            <mxPoint x="2190" y="1980" as="sourcePoint" />
            <mxPoint x="2240" y="1930" as="targetPoint" />
          </mxGeometry>
        </mxCell>
        <mxCell id="0v1o0kDrXnptHQjpsnTT-16" value="-" style="ellipse;whiteSpace=wrap;html=1;aspect=fixed;fontStyle=1" parent="1" vertex="1">
          <mxGeometry x="2210" y="2135" width="30" height="30" as="geometry" />
        </mxCell>
        <mxCell id="0v1o0kDrXnptHQjpsnTT-18" value="" style="rounded=0;whiteSpace=wrap;html=1;dashed=1;dashPattern=1 1;fontStyle=1" parent="1" vertex="1">
          <mxGeometry x="700" y="1040" width="330" height="200" as="geometry" />
        </mxCell>
        <mxCell id="0v1o0kDrXnptHQjpsnTT-22" value="Intra 4x4" style="rounded=0;whiteSpace=wrap;html=1;fontStyle=1" parent="1" vertex="1">
          <mxGeometry x="800" y="1050" width="100" height="40" as="geometry" />
        </mxCell>
        <mxCell id="0v1o0kDrXnptHQjpsnTT-80" style="edgeStyle=orthogonalEdgeStyle;rounded=0;orthogonalLoop=1;jettySize=auto;html=1;entryX=0.75;entryY=1;entryDx=0;entryDy=0;" parent="1" source="0v1o0kDrXnptHQjpsnTT-23" target="0v1o0kDrXnptHQjpsnTT-24" edge="1">
          <mxGeometry relative="1" as="geometry" />
        </mxCell>
        <mxCell id="0v1o0kDrXnptHQjpsnTT-23" value="Intra 16x16" style="rounded=0;whiteSpace=wrap;html=1;fontStyle=1" parent="1" vertex="1">
          <mxGeometry x="800" y="1120" width="100" height="40" as="geometry" />
        </mxCell>
        <mxCell id="0v1o0kDrXnptHQjpsnTT-82" style="edgeStyle=orthogonalEdgeStyle;rounded=0;orthogonalLoop=1;jettySize=auto;html=1;entryX=0.25;entryY=1;entryDx=0;entryDy=0;" parent="1" source="0v1o0kDrXnptHQjpsnTT-24" target="0v1o0kDrXnptHQjpsnTT-28" edge="1">
          <mxGeometry relative="1" as="geometry" />
        </mxCell>
        <mxCell id="0v1o0kDrXnptHQjpsnTT-24" value="&lt;font style=&quot;font-size: 8px;&quot;&gt;MUX&lt;/font&gt;" style="shape=trapezoid;perimeter=trapezoidPerimeter;whiteSpace=wrap;html=1;fixedSize=1;rotation=90;fontStyle=1" parent="1" vertex="1">
          <mxGeometry x="920" y="1095" width="60" height="20" as="geometry" />
        </mxCell>
        <mxCell id="0v1o0kDrXnptHQjpsnTT-25" value="" style="endArrow=classic;html=1;rounded=0;exitX=1;exitY=0.5;exitDx=0;exitDy=0;entryX=0.25;entryY=1;entryDx=0;entryDy=0;fontStyle=1" parent="1" source="0v1o0kDrXnptHQjpsnTT-22" target="0v1o0kDrXnptHQjpsnTT-24" edge="1">
          <mxGeometry width="50" height="50" relative="1" as="geometry">
            <mxPoint x="890" y="1095" as="sourcePoint" />
            <mxPoint x="940" y="1045" as="targetPoint" />
            <Array as="points">
              <mxPoint x="920" y="1070" />
              <mxPoint x="920" y="1090" />
            </Array>
          </mxGeometry>
        </mxCell>
        <mxCell id="0v1o0kDrXnptHQjpsnTT-81" style="edgeStyle=orthogonalEdgeStyle;rounded=0;orthogonalLoop=1;jettySize=auto;html=1;entryX=0.75;entryY=1;entryDx=0;entryDy=0;" parent="1" source="0v1o0kDrXnptHQjpsnTT-27" target="0v1o0kDrXnptHQjpsnTT-28" edge="1">
          <mxGeometry relative="1" as="geometry" />
        </mxCell>
        <mxCell id="0v1o0kDrXnptHQjpsnTT-27" value="Chroma 8x8" style="rounded=0;whiteSpace=wrap;html=1;fontStyle=1" parent="1" vertex="1">
          <mxGeometry x="800" y="1190" width="100" height="40" as="geometry" />
        </mxCell>
        <mxCell id="0v1o0kDrXnptHQjpsnTT-28" value="&lt;font style=&quot;font-size: 8px;&quot;&gt;MUX&lt;/font&gt;" style="shape=trapezoid;perimeter=trapezoidPerimeter;whiteSpace=wrap;html=1;fixedSize=1;rotation=90;fontStyle=1" parent="1" vertex="1">
          <mxGeometry x="980" y="1165" width="60" height="20" as="geometry" />
        </mxCell>
        <mxCell id="0v1o0kDrXnptHQjpsnTT-31" value="-" style="ellipse;whiteSpace=wrap;html=1;aspect=fixed;fontStyle=1" parent="1" vertex="1">
          <mxGeometry x="1065" y="1085" width="30" height="30" as="geometry" />
        </mxCell>
        <mxCell id="0v1o0kDrXnptHQjpsnTT-32" value="res" style="endArrow=classic;html=1;rounded=0;exitX=1;exitY=0.5;exitDx=0;exitDy=0;entryX=0;entryY=0.5;entryDx=0;entryDy=0;fontStyle=1" parent="1" source="0v1o0kDrXnptHQjpsnTT-31" target="0v1o0kDrXnptHQjpsnTT-33" edge="1">
          <mxGeometry y="10" width="50" height="50" relative="1" as="geometry">
            <mxPoint x="1105" y="1077.5" as="sourcePoint" />
            <mxPoint x="1145" y="1097.5" as="targetPoint" />
            <mxPoint as="offset" />
          </mxGeometry>
        </mxCell>
        <mxCell id="0v1o0kDrXnptHQjpsnTT-33" value="&lt;div&gt;Integer&lt;/div&gt;Transform" style="rounded=0;whiteSpace=wrap;html=1;fontStyle=1" parent="1" vertex="1">
          <mxGeometry x="1140" y="1080" width="80" height="40" as="geometry" />
        </mxCell>
        <mxCell id="0v1o0kDrXnptHQjpsnTT-88" style="edgeStyle=orthogonalEdgeStyle;rounded=0;orthogonalLoop=1;jettySize=auto;html=1;entryX=0.5;entryY=0;entryDx=0;entryDy=0;" parent="1" source="0v1o0kDrXnptHQjpsnTT-34" target="0v1o0kDrXnptHQjpsnTT-40" edge="1">
          <mxGeometry relative="1" as="geometry" />
        </mxCell>
        <mxCell id="0v1o0kDrXnptHQjpsnTT-34" value="Quantization" style="rounded=0;whiteSpace=wrap;html=1;fontStyle=1" parent="1" vertex="1">
          <mxGeometry x="1260" y="1080" width="80" height="40" as="geometry" />
        </mxCell>
        <mxCell id="0v1o0kDrXnptHQjpsnTT-35" value="" style="endArrow=classic;html=1;rounded=0;exitX=1;exitY=0.5;exitDx=0;exitDy=0;entryX=0;entryY=0.5;entryDx=0;entryDy=0;fontStyle=1" parent="1" source="0v1o0kDrXnptHQjpsnTT-33" target="0v1o0kDrXnptHQjpsnTT-34" edge="1">
          <mxGeometry width="50" height="50" relative="1" as="geometry">
            <mxPoint x="1255" y="1107.5" as="sourcePoint" />
            <mxPoint x="1305" y="1057.5" as="targetPoint" />
          </mxGeometry>
        </mxCell>
        <mxCell id="0v1o0kDrXnptHQjpsnTT-38" value="" style="endArrow=classic;html=1;rounded=0;entryX=0;entryY=0.5;entryDx=0;entryDy=0;exitX=1;exitY=0.5;exitDx=0;exitDy=0;fontStyle=1" parent="1" source="0v1o0kDrXnptHQjpsnTT-34" target="0v1o0kDrXnptHQjpsnTT-72" edge="1">
          <mxGeometry width="50" height="50" relative="1" as="geometry">
            <mxPoint x="1355" y="1127.5" as="sourcePoint" />
            <mxPoint x="1395" y="1097.5" as="targetPoint" />
          </mxGeometry>
        </mxCell>
        <mxCell id="0v1o0kDrXnptHQjpsnTT-40" value="&lt;div&gt;Inverse&lt;/div&gt;Quantization" style="rounded=0;whiteSpace=wrap;html=1;fontStyle=1" parent="1" vertex="1">
          <mxGeometry x="1260" y="1280" width="80" height="40" as="geometry" />
        </mxCell>
        <mxCell id="0v1o0kDrXnptHQjpsnTT-41" value="+" style="ellipse;whiteSpace=wrap;html=1;aspect=fixed;fontStyle=1" parent="1" vertex="1">
          <mxGeometry x="1065" y="1285" width="30" height="30" as="geometry" />
        </mxCell>
        <mxCell id="0v1o0kDrXnptHQjpsnTT-44" value="&lt;div&gt;Inverse&lt;/div&gt;Transform" style="rounded=0;whiteSpace=wrap;html=1;fontStyle=1" parent="1" vertex="1">
          <mxGeometry x="1140" y="1280" width="80" height="40" as="geometry" />
        </mxCell>
        <mxCell id="0v1o0kDrXnptHQjpsnTT-45" value="" style="endArrow=classic;html=1;rounded=0;entryX=1;entryY=0.5;entryDx=0;entryDy=0;exitX=0;exitY=0.5;exitDx=0;exitDy=0;fontStyle=1" parent="1" source="0v1o0kDrXnptHQjpsnTT-40" target="0v1o0kDrXnptHQjpsnTT-44" edge="1">
          <mxGeometry width="50" height="50" relative="1" as="geometry">
            <mxPoint x="1206" y="1252.5" as="sourcePoint" />
            <mxPoint x="1256" y="1202.5" as="targetPoint" />
          </mxGeometry>
        </mxCell>
        <mxCell id="0v1o0kDrXnptHQjpsnTT-46" value="" style="endArrow=classic;html=1;rounded=0;entryX=1;entryY=0.5;entryDx=0;entryDy=0;exitX=0;exitY=0.5;exitDx=0;exitDy=0;fontStyle=1" parent="1" source="0v1o0kDrXnptHQjpsnTT-44" target="0v1o0kDrXnptHQjpsnTT-41" edge="1">
          <mxGeometry width="50" height="50" relative="1" as="geometry">
            <mxPoint x="1146" y="1252.5" as="sourcePoint" />
            <mxPoint x="1196" y="1202.5" as="targetPoint" />
          </mxGeometry>
        </mxCell>
        <mxCell id="0v1o0kDrXnptHQjpsnTT-47" value="&lt;font style=&quot;font-size: 10px;&quot;&gt;reconstructed&lt;/font&gt;" style="endArrow=classic;html=1;rounded=0;exitX=0;exitY=0.5;exitDx=0;exitDy=0;entryX=1;entryY=0.5;entryDx=0;entryDy=0;fontStyle=1;strokeColor=default;labelBackgroundColor=none;" parent="1" source="0v1o0kDrXnptHQjpsnTT-41" target="0v1o0kDrXnptHQjpsnTT-52" edge="1">
          <mxGeometry x="0.0031" y="-5" width="50" height="50" relative="1" as="geometry">
            <mxPoint x="1031" y="1310" as="sourcePoint" />
            <mxPoint x="930" y="1315" as="targetPoint" />
            <mxPoint as="offset" />
          </mxGeometry>
        </mxCell>
        <mxCell id="0v1o0kDrXnptHQjpsnTT-48" value="Prediction&lt;div&gt;Module&lt;/div&gt;" style="rounded=0;whiteSpace=wrap;html=1;fontStyle=1" parent="1" vertex="1">
          <mxGeometry x="710" y="1050" width="70" height="180" as="geometry" />
        </mxCell>
        <mxCell id="0v1o0kDrXnptHQjpsnTT-50" value="" style="endArrow=classic;html=1;rounded=0;exitX=1.005;exitY=0.892;exitDx=0;exitDy=0;entryX=0;entryY=0.5;entryDx=0;entryDy=0;fontStyle=1;exitPerimeter=0;" parent="1" source="0v1o0kDrXnptHQjpsnTT-48" target="0v1o0kDrXnptHQjpsnTT-27" edge="1">
          <mxGeometry width="50" height="50" relative="1" as="geometry">
            <mxPoint x="790" y="1215" as="sourcePoint" />
            <mxPoint x="880" y="1185" as="targetPoint" />
          </mxGeometry>
        </mxCell>
        <mxCell id="0v1o0kDrXnptHQjpsnTT-89" style="edgeStyle=orthogonalEdgeStyle;rounded=0;orthogonalLoop=1;jettySize=auto;html=1;entryX=0.5;entryY=1;entryDx=0;entryDy=0;" parent="1" source="0v1o0kDrXnptHQjpsnTT-52" target="0v1o0kDrXnptHQjpsnTT-48" edge="1">
          <mxGeometry relative="1" as="geometry" />
        </mxCell>
        <mxCell id="0v1o0kDrXnptHQjpsnTT-52" value="Reference&lt;div&gt;Pixels&lt;/div&gt;" style="rounded=0;whiteSpace=wrap;html=1;fontStyle=1" parent="1" vertex="1">
          <mxGeometry x="710" y="1277.5" width="70" height="45" as="geometry" />
        </mxCell>
        <mxCell id="0v1o0kDrXnptHQjpsnTT-53" value="" style="endArrow=classic;html=1;rounded=0;exitX=1;exitY=0.5;exitDx=0;exitDy=0;entryX=0;entryY=0.5;entryDx=0;entryDy=0;fontStyle=1" parent="1" source="0v1o0kDrXnptHQjpsnTT-48" target="0v1o0kDrXnptHQjpsnTT-23" edge="1">
          <mxGeometry width="50" height="50" relative="1" as="geometry">
            <mxPoint x="790" y="1125" as="sourcePoint" />
            <mxPoint x="850" y="1125" as="targetPoint" />
          </mxGeometry>
        </mxCell>
        <mxCell id="0v1o0kDrXnptHQjpsnTT-59" value="&lt;span&gt;ori&lt;/span&gt;" style="endArrow=classic;html=1;rounded=0;entryX=0.5;entryY=0;entryDx=0;entryDy=0;fontStyle=1" parent="1" target="0v1o0kDrXnptHQjpsnTT-31" edge="1">
          <mxGeometry x="0.8652" y="-15" width="50" height="50" relative="1" as="geometry">
            <mxPoint x="680" y="1140" as="sourcePoint" />
            <mxPoint x="1040" y="970" as="targetPoint" />
            <Array as="points">
              <mxPoint x="680" y="1030" />
              <mxPoint x="1080" y="1030" />
            </Array>
            <mxPoint as="offset" />
          </mxGeometry>
        </mxCell>
        <mxCell id="0v1o0kDrXnptHQjpsnTT-67" value="" style="endArrow=classic;html=1;rounded=0;exitX=1;exitY=0.5;exitDx=0;exitDy=0;entryX=0;entryY=0.5;entryDx=0;entryDy=0;fontStyle=1;" parent="1" source="0v1o0kDrXnptHQjpsnTT-91" target="0v1o0kDrXnptHQjpsnTT-18" edge="1">
          <mxGeometry width="50" height="50" relative="1" as="geometry">
            <mxPoint x="660" y="1140" as="sourcePoint" />
            <mxPoint x="600" y="990" as="targetPoint" />
          </mxGeometry>
        </mxCell>
        <mxCell id="0v1o0kDrXnptHQjpsnTT-72" value="CALVC" style="rounded=0;whiteSpace=wrap;html=1;fontStyle=1" parent="1" vertex="1">
          <mxGeometry x="1380" y="1080" width="80" height="40" as="geometry" />
        </mxCell>
        <mxCell id="0v1o0kDrXnptHQjpsnTT-73" value="Stream&lt;div&gt;Generator&lt;/div&gt;" style="rounded=0;whiteSpace=wrap;html=1;fontStyle=1" parent="1" vertex="1">
          <mxGeometry x="1500" y="1070" width="75" height="140" as="geometry" />
        </mxCell>
        <mxCell id="0v1o0kDrXnptHQjpsnTT-74" value="&lt;span style=&quot;font-weight: normal;&quot;&gt;Coded&amp;nbsp;&lt;/span&gt;&lt;div&gt;&lt;span style=&quot;font-weight: normal;&quot;&gt;Bitstream&lt;/span&gt;&lt;/div&gt;" style="endArrow=classic;html=1;rounded=0;fontStyle=1;labelBackgroundColor=none;" parent="1" edge="1">
          <mxGeometry width="50" height="50" relative="1" as="geometry">
            <mxPoint x="1600" y="1140" as="sourcePoint" />
            <mxPoint x="1670" y="1140" as="targetPoint" />
            <mxPoint as="offset" />
          </mxGeometry>
        </mxCell>
        <mxCell id="0v1o0kDrXnptHQjpsnTT-76" value="Header&lt;div&gt;Generator&lt;/div&gt;" style="rounded=0;whiteSpace=wrap;html=1;fontStyle=1" parent="1" vertex="1">
          <mxGeometry x="1380" y="1160" width="80" height="60" as="geometry" />
        </mxCell>
        <mxCell id="0v1o0kDrXnptHQjpsnTT-79" style="edgeStyle=orthogonalEdgeStyle;rounded=0;orthogonalLoop=1;jettySize=auto;html=1;exitX=0.994;exitY=0.111;exitDx=0;exitDy=0;exitPerimeter=0;" parent="1" source="0v1o0kDrXnptHQjpsnTT-48" target="0v1o0kDrXnptHQjpsnTT-22" edge="1">
          <mxGeometry relative="1" as="geometry" />
        </mxCell>
        <mxCell id="0v1o0kDrXnptHQjpsnTT-83" value="" style="endArrow=classic;startArrow=classic;html=1;rounded=0;exitX=0.5;exitY=1;exitDx=0;exitDy=0;entryX=0.5;entryY=0;entryDx=0;entryDy=0;" parent="1" source="0v1o0kDrXnptHQjpsnTT-31" target="0v1o0kDrXnptHQjpsnTT-41" edge="1">
          <mxGeometry width="50" height="50" relative="1" as="geometry">
            <mxPoint x="1130" y="1150" as="sourcePoint" />
            <mxPoint x="1090" y="1250" as="targetPoint" />
          </mxGeometry>
        </mxCell>
        <mxCell id="0v1o0kDrXnptHQjpsnTT-84" value="&lt;b&gt;pre&lt;/b&gt;" style="endArrow=none;html=1;rounded=0;exitX=0.5;exitY=0;exitDx=0;exitDy=0;entryX=0.5;entryY=1;entryDx=0;entryDy=0;labelBackgroundColor=none;" parent="1" source="0v1o0kDrXnptHQjpsnTT-28" target="0v1o0kDrXnptHQjpsnTT-31" edge="1">
          <mxGeometry x="-0.3333" y="5" width="50" height="50" relative="1" as="geometry">
            <mxPoint x="1110" y="1190" as="sourcePoint" />
            <mxPoint x="1080" y="1175" as="targetPoint" />
            <Array as="points">
              <mxPoint x="1080" y="1175" />
            </Array>
            <mxPoint as="offset" />
          </mxGeometry>
        </mxCell>
        <mxCell id="0v1o0kDrXnptHQjpsnTT-90" value="" style="group" parent="1" vertex="1" connectable="0">
          <mxGeometry x="510" y="1090" width="150" height="100" as="geometry" />
        </mxCell>
        <mxCell id="0v1o0kDrXnptHQjpsnTT-91" value="" style="rounded=0;whiteSpace=wrap;html=1;dashed=1;dashPattern=1 1;fontStyle=1" parent="0v1o0kDrXnptHQjpsnTT-90" vertex="1">
          <mxGeometry width="150" height="100" as="geometry" />
        </mxCell>
        <mxCell id="0v1o0kDrXnptHQjpsnTT-92" value="16x16&lt;div&gt;Luma (Y)&lt;/div&gt;" style="rounded=0;whiteSpace=wrap;html=1;fontStyle=1" parent="0v1o0kDrXnptHQjpsnTT-90" vertex="1">
          <mxGeometry x="8.819999999999993" y="30" width="61.18" height="60" as="geometry" />
        </mxCell>
        <mxCell id="0v1o0kDrXnptHQjpsnTT-93" value="8x8&lt;div&gt;Chroma (CrCb)&lt;/div&gt;" style="rounded=0;whiteSpace=wrap;html=1;fontStyle=1" parent="0v1o0kDrXnptHQjpsnTT-90" vertex="1">
          <mxGeometry x="80" y="30" width="58.24" height="60" as="geometry" />
        </mxCell>
        <mxCell id="0v1o0kDrXnptHQjpsnTT-94" value="&lt;span&gt;&lt;font style=&quot;font-size: 15px;&quot;&gt;Load MB&lt;/font&gt;&lt;/span&gt;" style="text;html=1;align=center;verticalAlign=middle;whiteSpace=wrap;rounded=0;fontStyle=1" parent="0v1o0kDrXnptHQjpsnTT-90" vertex="1">
          <mxGeometry x="30.879999999999995" width="78.24" height="27.27" as="geometry" />
        </mxCell>
        <mxCell id="0v1o0kDrXnptHQjpsnTT-96" style="edgeStyle=orthogonalEdgeStyle;rounded=0;orthogonalLoop=1;jettySize=auto;html=1;entryX=-0.012;entryY=0.214;entryDx=0;entryDy=0;entryPerimeter=0;" parent="1" source="0v1o0kDrXnptHQjpsnTT-72" target="0v1o0kDrXnptHQjpsnTT-73" edge="1">
          <mxGeometry relative="1" as="geometry" />
        </mxCell>
        <mxCell id="0v1o0kDrXnptHQjpsnTT-97" style="edgeStyle=orthogonalEdgeStyle;rounded=0;orthogonalLoop=1;jettySize=auto;html=1;entryX=0;entryY=0.856;entryDx=0;entryDy=0;entryPerimeter=0;" parent="1" source="0v1o0kDrXnptHQjpsnTT-76" target="0v1o0kDrXnptHQjpsnTT-73" edge="1">
          <mxGeometry relative="1" as="geometry" />
        </mxCell>
        <mxCell id="0v1o0kDrXnptHQjpsnTT-100" value="Input Video&lt;div&gt;Data&lt;/div&gt;" style="endArrow=classic;html=1;rounded=0;labelBackgroundColor=none;" parent="1" edge="1">
          <mxGeometry x="-0.1429" width="50" height="50" relative="1" as="geometry">
            <mxPoint x="420" y="1140" as="sourcePoint" />
            <mxPoint x="490" y="1140" as="targetPoint" />
            <mxPoint as="offset" />
          </mxGeometry>
        </mxCell>
        <mxCell id="0v1o0kDrXnptHQjpsnTT-101" value="" style="endArrow=none;dashed=1;html=1;rounded=0;exitX=1;exitY=0.5;exitDx=0;exitDy=0;entryX=1;entryY=0.389;entryDx=0;entryDy=0;entryPerimeter=0;" parent="1" source="0v1o0kDrXnptHQjpsnTT-73" target="0v1o0kDrXnptHQjpsnTT-98" edge="1">
          <mxGeometry width="50" height="50" relative="1" as="geometry">
            <mxPoint x="1570" y="1140" as="sourcePoint" />
            <mxPoint x="1620" y="1090" as="targetPoint" />
          </mxGeometry>
        </mxCell>
        <mxCell id="0v1o0kDrXnptHQjpsnTT-102" value="" style="endArrow=none;dashed=1;html=1;rounded=0;exitX=-0.001;exitY=0.388;exitDx=0;exitDy=0;exitPerimeter=0;entryX=0;entryY=0.5;entryDx=0;entryDy=0;" parent="1" source="0v1o0kDrXnptHQjpsnTT-98" target="0v1o0kDrXnptHQjpsnTT-91" edge="1">
          <mxGeometry width="50" height="50" relative="1" as="geometry">
            <mxPoint x="470" y="1120" as="sourcePoint" />
            <mxPoint x="520" y="1070" as="targetPoint" />
          </mxGeometry>
        </mxCell>
        <mxCell id="b39GvRhRUh1CZpVxbpAW-43" value="" style="rounded=0;whiteSpace=wrap;html=1;dashed=1;dashPattern=1 1;fillColor=#f5f5f5;fontColor=#333333;strokeColor=#666666;fontStyle=1" parent="1" vertex="1">
          <mxGeometry x="2960" y="198" width="610" height="305" as="geometry" />
        </mxCell>
        <mxCell id="b39GvRhRUh1CZpVxbpAW-44" value="" style="rounded=0;whiteSpace=wrap;html=1;fontStyle=1;fillColor=#f8cecc;strokeColor=#b85450;" parent="1" vertex="1">
          <mxGeometry x="3000" y="223" width="160" height="80" as="geometry" />
        </mxCell>
        <mxCell id="b39GvRhRUh1CZpVxbpAW-45" value="H264 Intra&lt;div&gt;Encoder IP&lt;/div&gt;" style="rounded=0;whiteSpace=wrap;html=1;fontStyle=1;fillColor=#dae8fc;strokeColor=#6c8ebf;" parent="1" vertex="1">
          <mxGeometry x="3000" y="403" width="160" height="60" as="geometry" />
        </mxCell>
        <mxCell id="b39GvRhRUh1CZpVxbpAW-46" value="AXI DMA" style="rounded=0;whiteSpace=wrap;html=1;fontStyle=1;fillColor=#dae8fc;strokeColor=#6c8ebf;" parent="1" vertex="1">
          <mxGeometry x="3240" y="403" width="120" height="60" as="geometry" />
        </mxCell>
        <mxCell id="b39GvRhRUh1CZpVxbpAW-52" value="&lt;span&gt;&lt;font style=&quot;font-size: 16px;&quot;&gt;RISC-V Core&lt;/font&gt;&lt;/span&gt;" style="text;html=1;align=center;verticalAlign=middle;whiteSpace=wrap;rounded=0;fontStyle=1" parent="1" vertex="1">
          <mxGeometry x="3000" y="248" width="160" height="30" as="geometry" />
        </mxCell>
        <mxCell id="b39GvRhRUh1CZpVxbpAW-63" value="FPGA" style="text;html=1;align=center;verticalAlign=middle;whiteSpace=wrap;rounded=0;fontStyle=1" parent="1" vertex="1">
          <mxGeometry x="2960" y="201" width="50" height="10" as="geometry" />
        </mxCell>
        <mxCell id="b39GvRhRUh1CZpVxbpAW-64" value="m_axi" style="text;html=1;align=center;verticalAlign=middle;whiteSpace=wrap;rounded=0;" parent="1" vertex="1">
          <mxGeometry x="3050" y="288" width="60" height="15" as="geometry" />
        </mxCell>
        <mxCell id="b39GvRhRUh1CZpVxbpAW-65" value="s_axi-lite" style="text;html=1;align=center;verticalAlign=middle;whiteSpace=wrap;rounded=0;" parent="1" vertex="1">
          <mxGeometry x="3050" y="403" width="60" height="15" as="geometry" />
        </mxCell>
        <mxCell id="b39GvRhRUh1CZpVxbpAW-67" value="axis_mm2s" style="endArrow=classic;html=1;rounded=0;entryX=1;entryY=0.25;entryDx=0;entryDy=0;exitX=0;exitY=0.25;exitDx=0;exitDy=0;" parent="1" source="b39GvRhRUh1CZpVxbpAW-46" target="b39GvRhRUh1CZpVxbpAW-45" edge="1">
          <mxGeometry width="50" height="50" relative="1" as="geometry">
            <mxPoint x="3250" y="423" as="sourcePoint" />
            <mxPoint x="3300" y="373" as="targetPoint" />
          </mxGeometry>
        </mxCell>
        <mxCell id="b39GvRhRUh1CZpVxbpAW-68" value="axis_s2mm" style="endArrow=classic;html=1;rounded=0;exitX=1;exitY=0.75;exitDx=0;exitDy=0;entryX=0;entryY=0.75;entryDx=0;entryDy=0;" parent="1" source="b39GvRhRUh1CZpVxbpAW-45" target="b39GvRhRUh1CZpVxbpAW-46" edge="1">
          <mxGeometry width="50" height="50" relative="1" as="geometry">
            <mxPoint x="3250" y="423" as="sourcePoint" />
            <mxPoint x="3300" y="373" as="targetPoint" />
          </mxGeometry>
        </mxCell>
        <mxCell id="b39GvRhRUh1CZpVxbpAW-69" value="s_axi-lite" style="text;html=1;align=center;verticalAlign=middle;whiteSpace=wrap;rounded=0;" parent="1" vertex="1">
          <mxGeometry x="3270" y="400.5" width="60" height="20" as="geometry" />
        </mxCell>
        <mxCell id="b39GvRhRUh1CZpVxbpAW-70" value="" style="endArrow=classic;html=1;rounded=0;exitX=0.5;exitY=1;exitDx=0;exitDy=0;entryX=0.5;entryY=0;entryDx=0;entryDy=0;" parent="1" source="b39GvRhRUh1CZpVxbpAW-44" target="b39GvRhRUh1CZpVxbpAW-45" edge="1">
          <mxGeometry width="50" height="50" relative="1" as="geometry">
            <mxPoint x="3160" y="393" as="sourcePoint" />
            <mxPoint x="3210" y="343" as="targetPoint" />
          </mxGeometry>
        </mxCell>
        <mxCell id="b39GvRhRUh1CZpVxbpAW-71" value="RAM" style="rounded=0;whiteSpace=wrap;html=1;fontStyle=1" parent="1" vertex="1">
          <mxGeometry x="3440" y="403" width="100" height="60" as="geometry" />
        </mxCell>
        <mxCell id="b39GvRhRUh1CZpVxbpAW-73" value="" style="endArrow=classic;html=1;rounded=0;entryX=0.5;entryY=0;entryDx=0;entryDy=0;" parent="1" target="b39GvRhRUh1CZpVxbpAW-46" edge="1">
          <mxGeometry width="50" height="50" relative="1" as="geometry">
            <mxPoint x="3080" y="353" as="sourcePoint" />
            <mxPoint x="3240" y="323" as="targetPoint" />
            <Array as="points">
              <mxPoint x="3300" y="353" />
            </Array>
          </mxGeometry>
        </mxCell>
        <mxCell id="b39GvRhRUh1CZpVxbpAW-74" value="axi_mm2s" style="endArrow=classic;html=1;rounded=0;entryX=1;entryY=0.25;entryDx=0;entryDy=0;exitX=0;exitY=0.25;exitDx=0;exitDy=0;" parent="1" source="b39GvRhRUh1CZpVxbpAW-71" target="b39GvRhRUh1CZpVxbpAW-46" edge="1">
          <mxGeometry width="50" height="50" relative="1" as="geometry">
            <mxPoint x="3350" y="433" as="sourcePoint" />
            <mxPoint x="3400" y="383" as="targetPoint" />
          </mxGeometry>
        </mxCell>
        <mxCell id="b39GvRhRUh1CZpVxbpAW-75" value="axi_s2mm" style="endArrow=classic;html=1;rounded=0;exitX=1;exitY=0.75;exitDx=0;exitDy=0;entryX=0;entryY=0.75;entryDx=0;entryDy=0;" parent="1" source="b39GvRhRUh1CZpVxbpAW-46" target="b39GvRhRUh1CZpVxbpAW-71" edge="1">
          <mxGeometry width="50" height="50" relative="1" as="geometry">
            <mxPoint x="3350" y="433" as="sourcePoint" />
            <mxPoint x="3400" y="383" as="targetPoint" />
          </mxGeometry>
        </mxCell>
      </root>
    </mxGraphModel>
  </diagram>
</mxfile>
